M48
; DRILL file {KiCad (6.0.9)} date Fri Dec 23 15:53:03 2022
; FORMAT={-:-/ absolute / metric / decimal}
; #@! TF.CreationDate,2022-12-23T15:53:03-08:00
; #@! TF.GenerationSoftware,Kicad,Pcbnew,(6.0.9)
; #@! TF.FileFunction,Plated,1,4,PTH
FMAT,2
METRIC
; #@! TA.AperFunction,Plated,PTH,ViaDrill
T1C0.200
; #@! TA.AperFunction,Plated,PTH,ComponentDrill
T2C0.600
; #@! TA.AperFunction,Plated,PTH,ComponentDrill
T3C0.850
; #@! TA.AperFunction,Plated,PTH,ComponentDrill
T4C1.000
; #@! TA.AperFunction,Plated,PTH,ComponentDrill
T5C3.200
%
G90
G05
T1
X110.412Y-48.333
X110.412Y-49.834
X110.436Y-44.223
X110.449Y-42.643
X110.636Y-63.603
X110.645Y-56.227
X110.645Y-57.943
X110.659Y-61.913
X110.976Y-59.898
X111.417Y-60.469
X111.432Y-59.342
X111.876Y-67.659
X112.376Y-70.831
X112.401Y-72.025
X112.594Y-67.959
X113.03Y-57.81
X113.569Y-68.154
X113.73Y-59.152
X114.808Y-72.015
X114.85Y-70.997
X115.08Y-73.614
X115.538Y-66.601
X115.759Y-74.889
X115.875Y-80.088
X117.354Y-65.984
X117.601Y-75.845
X117.799Y-80.145
X118.125Y-77.568
X120.148Y-45.208
X121.3Y-47.233
X121.407Y-44.301
X121.718Y-38.955
X121.736Y-37.515
X122.027Y-48.415
X122.614Y-41.907
X123.194Y-44.66
X123.655Y-42.917
X131.259Y-73.702
X131.686Y-78.889
X132.596Y-79.864
X133.19Y-72.819
X133.799Y-78.239
X133.848Y-72.86
X134.419Y-57.384
X136.201Y-44.153
X136.219Y-42.503
X136.26Y-49.757
X136.271Y-48.144
X136.291Y-67.358
X136.297Y-68.854
X136.324Y-74.525
X136.335Y-72.975
T3
X114.283Y-78.697
X119.283Y-78.697
T4
X110.153Y-75.324
X113.118Y-48.782
X113.118Y-51.322
X114.408Y-62.889
X115.555Y-42.088
X115.555Y-44.628
X116.948Y-62.889
X120.341Y-50.5
X120.547Y-38.177
X122.614Y-67.55
X122.614Y-70.09
X122.881Y-50.5
X123.087Y-38.177
X123.193Y-74.649
X123.193Y-77.189
X127.229Y-50.486
X127.356Y-70.413
X128.35Y-74.568
X128.35Y-77.108
X128.799Y-42.912
X129.769Y-50.486
X129.896Y-70.413
X131.362Y-35.232
X132.309Y-50.486
X132.436Y-70.413
T5
X109.064Y-80.154
X109.792Y-35.945
X137.238Y-36.127
X137.576Y-80.097
T2
X113.283Y-81.747G85X113.283Y-81.047
G05
X120.283Y-81.047G85X120.283Y-81.747
G05
T0
M30
