G04 #@! TF.GenerationSoftware,KiCad,Pcbnew,(6.0.9)*
G04 #@! TF.CreationDate,2022-12-23T15:52:53-08:00*
G04 #@! TF.ProjectId,pdm_mic_brd,70646d5f-6d69-4635-9f62-72642e6b6963,rev?*
G04 #@! TF.SameCoordinates,Original*
G04 #@! TF.FileFunction,Legend,Bot*
G04 #@! TF.FilePolarity,Positive*
%FSLAX46Y46*%
G04 Gerber Fmt 4.6, Leading zero omitted, Abs format (unit mm)*
G04 Created by KiCad (PCBNEW (6.0.9)) date 2022-12-23 15:52:53*
%MOMM*%
%LPD*%
G01*
G04 APERTURE LIST*
%ADD10R,1.700000X1.700000*%
%ADD11O,1.700000X1.700000*%
%ADD12R,4.200000X1.350000*%
%ADD13C,5.600000*%
%ADD14C,3.600000*%
%ADD15C,1.700000*%
%ADD16C,2.000000*%
%ADD17C,1.450000*%
%ADD18O,1.200000X1.900000*%
G04 APERTURE END LIST*
%LPC*%
D10*
X115555000Y-42088000D03*
D11*
X115555000Y-44628000D03*
D10*
X113118000Y-51322000D03*
D11*
X113118000Y-48782000D03*
D12*
X138438500Y-48962000D03*
X138438500Y-43312000D03*
X108378000Y-62748000D03*
X108378000Y-57098000D03*
D10*
X116948000Y-62889000D03*
D11*
X114408000Y-62889000D03*
D13*
X137238000Y-36127000D03*
D14*
X137238000Y-36127000D03*
D10*
X128350000Y-77108000D03*
D11*
X128350000Y-74568000D03*
D12*
X138508000Y-68117000D03*
X138508000Y-73767000D03*
D13*
X109792000Y-35945000D03*
D14*
X109792000Y-35945000D03*
D10*
X132309000Y-50486000D03*
D11*
X129769000Y-50486000D03*
X127229000Y-50486000D03*
D10*
X122614000Y-70090000D03*
D11*
X122614000Y-67550000D03*
D12*
X108222000Y-49091000D03*
X108222000Y-43441000D03*
D15*
X134230000Y-59344000D03*
X127230000Y-59344000D03*
D16*
X110153000Y-75324000D03*
D10*
X122881000Y-50500000D03*
D11*
X120341000Y-50500000D03*
D10*
X123193000Y-77189000D03*
D11*
X123193000Y-74649000D03*
D10*
X123087000Y-38177000D03*
D11*
X120547000Y-38177000D03*
D16*
X128799000Y-42912000D03*
D13*
X137576000Y-80097000D03*
D14*
X137576000Y-80097000D03*
D10*
X132436000Y-70413000D03*
D11*
X129896000Y-70413000D03*
X127356000Y-70413000D03*
D16*
X131362000Y-35232000D03*
D17*
X114283000Y-78697000D03*
D18*
X113283000Y-81397000D03*
D17*
X119283000Y-78697000D03*
D18*
X120283000Y-81397000D03*
D13*
X109064000Y-80154000D03*
D14*
X109064000Y-80154000D03*
M02*
