%TF.GenerationSoftware,KiCad,Pcbnew,(6.0.9)*%
%TF.CreationDate,2022-12-23T15:53:00-08:00*%
%TF.ProjectId,pdm_mic_brd,70646d5f-6d69-4635-9f62-72642e6b6963,rev?*%
%TF.SameCoordinates,Original*%
%TF.FileFunction,Drillmap*%
%TF.FilePolarity,Positive*%
%FSLAX45Y45*%
G04 Gerber Fmt 4.5, Leading zero omitted, Abs format (unit mm)*
G04 Created by KiCad (PCBNEW (6.0.9)) date 2022-12-23 15:53:00*
%MOMM*%
%LPD*%
G01*
G04 APERTURE LIST*
%ADD10C,0.100000*%
%ADD11C,0.200000*%
%ADD12C,0.170000*%
G04 APERTURE END LIST*
D10*
X10578050Y-3178600D02*
X14093350Y-3178600D01*
X14093350Y-3178600D02*
X14093350Y-8378600D01*
X14093350Y-8378600D02*
X10578050Y-8378600D01*
X10578050Y-8378600D02*
X10578050Y-3178600D01*
D11*
D12*
X12638000Y-5849400D02*
X12808000Y-6019400D01*
X12808000Y-5849400D02*
X12638000Y-6019400D01*
X13338000Y-5849400D02*
X13508000Y-6019400D01*
X13508000Y-5849400D02*
X13338000Y-6019400D01*
D11*
X10830669Y-8694076D02*
X10830669Y-8494076D01*
X10878288Y-8494076D01*
X10906860Y-8503600D01*
X10925907Y-8522648D01*
X10935431Y-8541695D01*
X10944955Y-8579790D01*
X10944955Y-8608362D01*
X10935431Y-8646457D01*
X10925907Y-8665505D01*
X10906860Y-8684552D01*
X10878288Y-8694076D01*
X10830669Y-8694076D01*
X11030669Y-8694076D02*
X11030669Y-8560743D01*
X11030669Y-8598838D02*
X11040193Y-8579790D01*
X11049717Y-8570267D01*
X11068764Y-8560743D01*
X11087812Y-8560743D01*
X11154479Y-8694076D02*
X11154479Y-8560743D01*
X11154479Y-8494076D02*
X11144955Y-8503600D01*
X11154479Y-8513124D01*
X11164002Y-8503600D01*
X11154479Y-8494076D01*
X11154479Y-8513124D01*
X11278288Y-8694076D02*
X11259240Y-8684552D01*
X11249717Y-8665505D01*
X11249717Y-8494076D01*
X11383050Y-8694076D02*
X11364002Y-8684552D01*
X11354478Y-8665505D01*
X11354478Y-8494076D01*
X11611621Y-8694076D02*
X11611621Y-8494076D01*
X11678288Y-8636933D01*
X11744955Y-8494076D01*
X11744955Y-8694076D01*
X11925907Y-8694076D02*
X11925907Y-8589314D01*
X11916383Y-8570267D01*
X11897336Y-8560743D01*
X11859240Y-8560743D01*
X11840193Y-8570267D01*
X11925907Y-8684552D02*
X11906859Y-8694076D01*
X11859240Y-8694076D01*
X11840193Y-8684552D01*
X11830669Y-8665505D01*
X11830669Y-8646457D01*
X11840193Y-8627410D01*
X11859240Y-8617886D01*
X11906859Y-8617886D01*
X11925907Y-8608362D01*
X12021145Y-8560743D02*
X12021145Y-8760743D01*
X12021145Y-8570267D02*
X12040193Y-8560743D01*
X12078288Y-8560743D01*
X12097336Y-8570267D01*
X12106859Y-8579790D01*
X12116383Y-8598838D01*
X12116383Y-8655981D01*
X12106859Y-8675029D01*
X12097336Y-8684552D01*
X12078288Y-8694076D01*
X12040193Y-8694076D01*
X12021145Y-8684552D01*
X12202098Y-8675029D02*
X12211621Y-8684552D01*
X12202098Y-8694076D01*
X12192574Y-8684552D01*
X12202098Y-8675029D01*
X12202098Y-8694076D01*
X12202098Y-8570267D02*
X12211621Y-8579790D01*
X12202098Y-8589314D01*
X12192574Y-8579790D01*
X12202098Y-8570267D01*
X12202098Y-8589314D01*
D12*
X10403050Y-8938600D02*
X10573050Y-9108600D01*
X10573050Y-8938600D02*
X10403050Y-9108600D01*
D11*
X10935431Y-9114076D02*
X10821145Y-9114076D01*
X10878288Y-9114076D02*
X10878288Y-8914076D01*
X10859240Y-8942648D01*
X10840193Y-8961695D01*
X10821145Y-8971219D01*
X11021145Y-9095029D02*
X11030669Y-9104552D01*
X11021145Y-9114076D01*
X11011621Y-9104552D01*
X11021145Y-9095029D01*
X11021145Y-9114076D01*
X11097336Y-8914076D02*
X11230669Y-8914076D01*
X11144955Y-9114076D01*
X11344955Y-8914076D02*
X11364002Y-8914076D01*
X11383050Y-8923600D01*
X11392574Y-8933124D01*
X11402098Y-8952171D01*
X11411621Y-8990267D01*
X11411621Y-9037886D01*
X11402098Y-9075981D01*
X11392574Y-9095029D01*
X11383050Y-9104552D01*
X11364002Y-9114076D01*
X11344955Y-9114076D01*
X11325907Y-9104552D01*
X11316383Y-9095029D01*
X11306859Y-9075981D01*
X11297336Y-9037886D01*
X11297336Y-8990267D01*
X11306859Y-8952171D01*
X11316383Y-8933124D01*
X11325907Y-8923600D01*
X11344955Y-8914076D01*
X11535431Y-8914076D02*
X11554478Y-8914076D01*
X11573526Y-8923600D01*
X11583050Y-8933124D01*
X11592574Y-8952171D01*
X11602098Y-8990267D01*
X11602098Y-9037886D01*
X11592574Y-9075981D01*
X11583050Y-9095029D01*
X11573526Y-9104552D01*
X11554478Y-9114076D01*
X11535431Y-9114076D01*
X11516383Y-9104552D01*
X11506859Y-9095029D01*
X11497336Y-9075981D01*
X11487812Y-9037886D01*
X11487812Y-8990267D01*
X11497336Y-8952171D01*
X11506859Y-8933124D01*
X11516383Y-8923600D01*
X11535431Y-8914076D01*
X11687812Y-9114076D02*
X11687812Y-8980743D01*
X11687812Y-8999790D02*
X11697336Y-8990267D01*
X11716383Y-8980743D01*
X11744955Y-8980743D01*
X11764002Y-8990267D01*
X11773526Y-9009314D01*
X11773526Y-9114076D01*
X11773526Y-9009314D02*
X11783050Y-8990267D01*
X11802098Y-8980743D01*
X11830669Y-8980743D01*
X11849717Y-8990267D01*
X11859240Y-9009314D01*
X11859240Y-9114076D01*
X11954478Y-9114076D02*
X11954478Y-8980743D01*
X11954478Y-8999790D02*
X11964002Y-8990267D01*
X11983050Y-8980743D01*
X12011621Y-8980743D01*
X12030669Y-8990267D01*
X12040193Y-9009314D01*
X12040193Y-9114076D01*
X12040193Y-9009314D02*
X12049717Y-8990267D01*
X12068764Y-8980743D01*
X12097336Y-8980743D01*
X12116383Y-8990267D01*
X12125907Y-9009314D01*
X12125907Y-9114076D01*
X12516383Y-8904552D02*
X12344955Y-9161695D01*
X12773526Y-8914076D02*
X12792574Y-8914076D01*
X12811621Y-8923600D01*
X12821145Y-8933124D01*
X12830669Y-8952171D01*
X12840193Y-8990267D01*
X12840193Y-9037886D01*
X12830669Y-9075981D01*
X12821145Y-9095029D01*
X12811621Y-9104552D01*
X12792574Y-9114076D01*
X12773526Y-9114076D01*
X12754478Y-9104552D01*
X12744955Y-9095029D01*
X12735431Y-9075981D01*
X12725907Y-9037886D01*
X12725907Y-8990267D01*
X12735431Y-8952171D01*
X12744955Y-8933124D01*
X12754478Y-8923600D01*
X12773526Y-8914076D01*
X12925907Y-9095029D02*
X12935431Y-9104552D01*
X12925907Y-9114076D01*
X12916383Y-9104552D01*
X12925907Y-9095029D01*
X12925907Y-9114076D01*
X13059240Y-8914076D02*
X13078288Y-8914076D01*
X13097336Y-8923600D01*
X13106859Y-8933124D01*
X13116383Y-8952171D01*
X13125907Y-8990267D01*
X13125907Y-9037886D01*
X13116383Y-9075981D01*
X13106859Y-9095029D01*
X13097336Y-9104552D01*
X13078288Y-9114076D01*
X13059240Y-9114076D01*
X13040193Y-9104552D01*
X13030669Y-9095029D01*
X13021145Y-9075981D01*
X13011621Y-9037886D01*
X13011621Y-8990267D01*
X13021145Y-8952171D01*
X13030669Y-8933124D01*
X13040193Y-8923600D01*
X13059240Y-8914076D01*
X13297336Y-8914076D02*
X13259240Y-8914076D01*
X13240193Y-8923600D01*
X13230669Y-8933124D01*
X13211621Y-8961695D01*
X13202098Y-8999790D01*
X13202098Y-9075981D01*
X13211621Y-9095029D01*
X13221145Y-9104552D01*
X13240193Y-9114076D01*
X13278288Y-9114076D01*
X13297336Y-9104552D01*
X13306859Y-9095029D01*
X13316383Y-9075981D01*
X13316383Y-9028362D01*
X13306859Y-9009314D01*
X13297336Y-8999790D01*
X13278288Y-8990267D01*
X13240193Y-8990267D01*
X13221145Y-8999790D01*
X13211621Y-9009314D01*
X13202098Y-9028362D01*
X13487812Y-8914076D02*
X13449717Y-8914076D01*
X13430669Y-8923600D01*
X13421145Y-8933124D01*
X13402098Y-8961695D01*
X13392574Y-8999790D01*
X13392574Y-9075981D01*
X13402098Y-9095029D01*
X13411621Y-9104552D01*
X13430669Y-9114076D01*
X13468764Y-9114076D01*
X13487812Y-9104552D01*
X13497336Y-9095029D01*
X13506859Y-9075981D01*
X13506859Y-9028362D01*
X13497336Y-9009314D01*
X13487812Y-8999790D01*
X13468764Y-8990267D01*
X13430669Y-8990267D01*
X13411621Y-8999790D01*
X13402098Y-9009314D01*
X13392574Y-9028362D01*
X13602098Y-9114076D02*
X13640193Y-9114076D01*
X13659240Y-9104552D01*
X13668764Y-9095029D01*
X13687812Y-9066457D01*
X13697336Y-9028362D01*
X13697336Y-8952171D01*
X13687812Y-8933124D01*
X13678288Y-8923600D01*
X13659240Y-8914076D01*
X13621145Y-8914076D01*
X13602098Y-8923600D01*
X13592574Y-8933124D01*
X13583050Y-8952171D01*
X13583050Y-8999790D01*
X13592574Y-9018838D01*
X13602098Y-9028362D01*
X13621145Y-9037886D01*
X13659240Y-9037886D01*
X13678288Y-9028362D01*
X13687812Y-9018838D01*
X13697336Y-8999790D01*
X13773526Y-8914076D02*
X13773526Y-8952171D01*
X13849717Y-8914076D02*
X13849717Y-8952171D01*
X14144955Y-9190267D02*
X14135431Y-9180743D01*
X14116383Y-9152171D01*
X14106859Y-9133124D01*
X14097336Y-9104552D01*
X14087812Y-9056933D01*
X14087812Y-9018838D01*
X14097336Y-8971219D01*
X14106859Y-8942648D01*
X14116383Y-8923600D01*
X14135431Y-8895029D01*
X14144955Y-8885505D01*
X14211621Y-8933124D02*
X14221145Y-8923600D01*
X14240193Y-8914076D01*
X14287812Y-8914076D01*
X14306859Y-8923600D01*
X14316383Y-8933124D01*
X14325907Y-8952171D01*
X14325907Y-8971219D01*
X14316383Y-8999790D01*
X14202098Y-9114076D01*
X14325907Y-9114076D01*
X14564002Y-9114076D02*
X14564002Y-8914076D01*
X14649717Y-9114076D02*
X14649717Y-9009314D01*
X14640193Y-8990267D01*
X14621145Y-8980743D01*
X14592574Y-8980743D01*
X14573526Y-8990267D01*
X14564002Y-8999790D01*
X14773526Y-9114076D02*
X14754478Y-9104552D01*
X14744955Y-9095029D01*
X14735431Y-9075981D01*
X14735431Y-9018838D01*
X14744955Y-8999790D01*
X14754478Y-8990267D01*
X14773526Y-8980743D01*
X14802098Y-8980743D01*
X14821145Y-8990267D01*
X14830669Y-8999790D01*
X14840193Y-9018838D01*
X14840193Y-9075981D01*
X14830669Y-9095029D01*
X14821145Y-9104552D01*
X14802098Y-9114076D01*
X14773526Y-9114076D01*
X14954478Y-9114076D02*
X14935431Y-9104552D01*
X14925907Y-9085505D01*
X14925907Y-8914076D01*
X15106859Y-9104552D02*
X15087812Y-9114076D01*
X15049717Y-9114076D01*
X15030669Y-9104552D01*
X15021145Y-9085505D01*
X15021145Y-9009314D01*
X15030669Y-8990267D01*
X15049717Y-8980743D01*
X15087812Y-8980743D01*
X15106859Y-8990267D01*
X15116383Y-9009314D01*
X15116383Y-9028362D01*
X15021145Y-9047410D01*
X15192574Y-9104552D02*
X15211621Y-9114076D01*
X15249717Y-9114076D01*
X15268764Y-9104552D01*
X15278288Y-9085505D01*
X15278288Y-9075981D01*
X15268764Y-9056933D01*
X15249717Y-9047410D01*
X15221145Y-9047410D01*
X15202098Y-9037886D01*
X15192574Y-9018838D01*
X15192574Y-9009314D01*
X15202098Y-8990267D01*
X15221145Y-8980743D01*
X15249717Y-8980743D01*
X15268764Y-8990267D01*
X15344955Y-9190267D02*
X15354478Y-9180743D01*
X15373526Y-9152171D01*
X15383050Y-9133124D01*
X15392574Y-9104552D01*
X15402098Y-9056933D01*
X15402098Y-9018838D01*
X15392574Y-8971219D01*
X15383050Y-8942648D01*
X15373526Y-8923600D01*
X15354478Y-8895029D01*
X15344955Y-8885505D01*
X15706859Y-9190267D02*
X15697336Y-9180743D01*
X15678288Y-9152171D01*
X15668764Y-9133124D01*
X15659240Y-9104552D01*
X15649717Y-9056933D01*
X15649717Y-9018838D01*
X15659240Y-8971219D01*
X15668764Y-8942648D01*
X15678288Y-8923600D01*
X15697336Y-8895029D01*
X15706859Y-8885505D01*
X15783050Y-8980743D02*
X15783050Y-9114076D01*
X15783050Y-8999790D02*
X15792574Y-8990267D01*
X15811621Y-8980743D01*
X15840193Y-8980743D01*
X15859240Y-8990267D01*
X15868764Y-9009314D01*
X15868764Y-9114076D01*
X15992574Y-9114076D02*
X15973526Y-9104552D01*
X15964002Y-9095029D01*
X15954478Y-9075981D01*
X15954478Y-9018838D01*
X15964002Y-8999790D01*
X15973526Y-8990267D01*
X15992574Y-8980743D01*
X16021145Y-8980743D01*
X16040193Y-8990267D01*
X16049717Y-8999790D01*
X16059240Y-9018838D01*
X16059240Y-9075981D01*
X16049717Y-9095029D01*
X16040193Y-9104552D01*
X16021145Y-9114076D01*
X15992574Y-9114076D01*
X16116383Y-8980743D02*
X16192574Y-8980743D01*
X16144955Y-8914076D02*
X16144955Y-9085505D01*
X16154478Y-9104552D01*
X16173526Y-9114076D01*
X16192574Y-9114076D01*
X16411621Y-8980743D02*
X16411621Y-9180743D01*
X16411621Y-8990267D02*
X16430669Y-8980743D01*
X16468764Y-8980743D01*
X16487812Y-8990267D01*
X16497336Y-8999790D01*
X16506859Y-9018838D01*
X16506859Y-9075981D01*
X16497336Y-9095029D01*
X16487812Y-9104552D01*
X16468764Y-9114076D01*
X16430669Y-9114076D01*
X16411621Y-9104552D01*
X16621145Y-9114076D02*
X16602098Y-9104552D01*
X16592574Y-9085505D01*
X16592574Y-8914076D01*
X16783050Y-9114076D02*
X16783050Y-9009314D01*
X16773526Y-8990267D01*
X16754478Y-8980743D01*
X16716383Y-8980743D01*
X16697336Y-8990267D01*
X16783050Y-9104552D02*
X16764002Y-9114076D01*
X16716383Y-9114076D01*
X16697336Y-9104552D01*
X16687812Y-9085505D01*
X16687812Y-9066457D01*
X16697336Y-9047410D01*
X16716383Y-9037886D01*
X16764002Y-9037886D01*
X16783050Y-9028362D01*
X16849717Y-8980743D02*
X16925907Y-8980743D01*
X16878288Y-8914076D02*
X16878288Y-9085505D01*
X16887812Y-9104552D01*
X16906860Y-9114076D01*
X16925907Y-9114076D01*
X17068764Y-9104552D02*
X17049717Y-9114076D01*
X17011621Y-9114076D01*
X16992574Y-9104552D01*
X16983050Y-9085505D01*
X16983050Y-9009314D01*
X16992574Y-8990267D01*
X17011621Y-8980743D01*
X17049717Y-8980743D01*
X17068764Y-8990267D01*
X17078288Y-9009314D01*
X17078288Y-9028362D01*
X16983050Y-9047410D01*
X17249717Y-9114076D02*
X17249717Y-8914076D01*
X17249717Y-9104552D02*
X17230669Y-9114076D01*
X17192574Y-9114076D01*
X17173526Y-9104552D01*
X17164002Y-9095029D01*
X17154479Y-9075981D01*
X17154479Y-9018838D01*
X17164002Y-8999790D01*
X17173526Y-8990267D01*
X17192574Y-8980743D01*
X17230669Y-8980743D01*
X17249717Y-8990267D01*
X17325907Y-9190267D02*
X17335431Y-9180743D01*
X17354479Y-9152171D01*
X17364002Y-9133124D01*
X17373526Y-9104552D01*
X17383050Y-9056933D01*
X17383050Y-9018838D01*
X17373526Y-8971219D01*
X17364002Y-8942648D01*
X17354479Y-8923600D01*
X17335431Y-8895029D01*
X17325907Y-8885505D01*
M02*
