%TF.GenerationSoftware,KiCad,Pcbnew,(6.0.9)*%
%TF.CreationDate,2022-12-23T15:52:03-08:00*%
%TF.ProjectId,pdm_mic_brd,70646d5f-6d69-4635-9f62-72642e6b6963,rev?*%
%TF.SameCoordinates,Original*%
%TF.FileFunction,Other,Comment*%
%FSLAX46Y46*%
G04 Gerber Fmt 4.6, Leading zero omitted, Abs format (unit mm)*
G04 Created by KiCad (PCBNEW (6.0.9)) date 2022-12-23 15:52:03*
%MOMM*%
%LPD*%
G01*
G04 APERTURE LIST*
%ADD10C,0.150000*%
G04 APERTURE END LIST*
D10*
%TO.C,J15*%
X132917071Y-55327476D02*
X132964690Y-55184619D01*
X133012309Y-55137000D01*
X133107547Y-55089380D01*
X133250404Y-55089380D01*
X133345642Y-55137000D01*
X133393261Y-55184619D01*
X133440880Y-55279857D01*
X133440880Y-55660809D01*
X132440880Y-55660809D01*
X132440880Y-55327476D01*
X132488500Y-55232238D01*
X132536119Y-55184619D01*
X132631357Y-55137000D01*
X132726595Y-55137000D01*
X132821833Y-55184619D01*
X132869452Y-55232238D01*
X132917071Y-55327476D01*
X132917071Y-55660809D01*
X133440880Y-54517952D02*
X133393261Y-54613190D01*
X133345642Y-54660809D01*
X133250404Y-54708428D01*
X132964690Y-54708428D01*
X132869452Y-54660809D01*
X132821833Y-54613190D01*
X132774214Y-54517952D01*
X132774214Y-54375095D01*
X132821833Y-54279857D01*
X132869452Y-54232238D01*
X132964690Y-54184619D01*
X133250404Y-54184619D01*
X133345642Y-54232238D01*
X133393261Y-54279857D01*
X133440880Y-54375095D01*
X133440880Y-54517952D01*
X133440880Y-53327476D02*
X132917071Y-53327476D01*
X132821833Y-53375095D01*
X132774214Y-53470333D01*
X132774214Y-53660809D01*
X132821833Y-53756047D01*
X133393261Y-53327476D02*
X133440880Y-53422714D01*
X133440880Y-53660809D01*
X133393261Y-53756047D01*
X133298023Y-53803666D01*
X133202785Y-53803666D01*
X133107547Y-53756047D01*
X133059928Y-53660809D01*
X133059928Y-53422714D01*
X133012309Y-53327476D01*
X133440880Y-52851285D02*
X132774214Y-52851285D01*
X132964690Y-52851285D02*
X132869452Y-52803666D01*
X132821833Y-52756047D01*
X132774214Y-52660809D01*
X132774214Y-52565571D01*
X133440880Y-51803666D02*
X132440880Y-51803666D01*
X133393261Y-51803666D02*
X133440880Y-51898904D01*
X133440880Y-52089380D01*
X133393261Y-52184619D01*
X133345642Y-52232238D01*
X133250404Y-52279857D01*
X132964690Y-52279857D01*
X132869452Y-52232238D01*
X132821833Y-52184619D01*
X132774214Y-52089380D01*
X132774214Y-51898904D01*
X132821833Y-51803666D01*
X132440880Y-50708428D02*
X132440880Y-50137000D01*
X133440880Y-50422714D02*
X132440880Y-50422714D01*
X133440880Y-49803666D02*
X132440880Y-49803666D01*
X133440880Y-49375095D02*
X132917071Y-49375095D01*
X132821833Y-49422714D01*
X132774214Y-49517952D01*
X132774214Y-49660809D01*
X132821833Y-49756047D01*
X132869452Y-49803666D01*
X133440880Y-48898904D02*
X132774214Y-48898904D01*
X132440880Y-48898904D02*
X132488500Y-48946523D01*
X132536119Y-48898904D01*
X132488500Y-48851285D01*
X132440880Y-48898904D01*
X132536119Y-48898904D01*
X133393261Y-47994142D02*
X133440880Y-48089380D01*
X133440880Y-48279857D01*
X133393261Y-48375095D01*
X133345642Y-48422714D01*
X133250404Y-48470333D01*
X132964690Y-48470333D01*
X132869452Y-48422714D01*
X132821833Y-48375095D01*
X132774214Y-48279857D01*
X132774214Y-48089380D01*
X132821833Y-47994142D01*
X133440880Y-47565571D02*
X132440880Y-47565571D01*
X133059928Y-47470333D02*
X133440880Y-47184619D01*
X132774214Y-47184619D02*
X133155166Y-47565571D01*
X132774214Y-46756047D02*
X133440880Y-46756047D01*
X132869452Y-46756047D02*
X132821833Y-46708428D01*
X132774214Y-46613190D01*
X132774214Y-46470333D01*
X132821833Y-46375095D01*
X132917071Y-46327476D01*
X133440880Y-46327476D01*
X133393261Y-45470333D02*
X133440880Y-45565571D01*
X133440880Y-45756047D01*
X133393261Y-45851285D01*
X133298023Y-45898904D01*
X132917071Y-45898904D01*
X132821833Y-45851285D01*
X132774214Y-45756047D01*
X132774214Y-45565571D01*
X132821833Y-45470333D01*
X132917071Y-45422714D01*
X133012309Y-45422714D01*
X133107547Y-45898904D01*
X133393261Y-45041761D02*
X133440880Y-44946523D01*
X133440880Y-44756047D01*
X133393261Y-44660809D01*
X133298023Y-44613190D01*
X133250404Y-44613190D01*
X133155166Y-44660809D01*
X133107547Y-44756047D01*
X133107547Y-44898904D01*
X133059928Y-44994142D01*
X132964690Y-45041761D01*
X132917071Y-45041761D01*
X132821833Y-44994142D01*
X132774214Y-44898904D01*
X132774214Y-44756047D01*
X132821833Y-44660809D01*
X133393261Y-44232238D02*
X133440880Y-44137000D01*
X133440880Y-43946523D01*
X133393261Y-43851285D01*
X133298023Y-43803666D01*
X133250404Y-43803666D01*
X133155166Y-43851285D01*
X133107547Y-43946523D01*
X133107547Y-44089380D01*
X133059928Y-44184619D01*
X132964690Y-44232238D01*
X132917071Y-44232238D01*
X132821833Y-44184619D01*
X132774214Y-44089380D01*
X132774214Y-43946523D01*
X132821833Y-43851285D01*
X133345642Y-43375095D02*
X133393261Y-43327476D01*
X133440880Y-43375095D01*
X133393261Y-43422714D01*
X133345642Y-43375095D01*
X133440880Y-43375095D01*
X132821833Y-43375095D02*
X132869452Y-43327476D01*
X132917071Y-43375095D01*
X132869452Y-43422714D01*
X132821833Y-43375095D01*
X132917071Y-43375095D01*
X133440880Y-41613190D02*
X133440880Y-42184619D01*
X133440880Y-41898904D02*
X132440880Y-41898904D01*
X132583738Y-41994142D01*
X132678976Y-42089380D01*
X132726595Y-42184619D01*
X133345642Y-41184619D02*
X133393261Y-41137000D01*
X133440880Y-41184619D01*
X133393261Y-41232238D01*
X133345642Y-41184619D01*
X133440880Y-41184619D01*
X132440880Y-40232238D02*
X132440880Y-40708428D01*
X132917071Y-40756047D01*
X132869452Y-40708428D01*
X132821833Y-40613190D01*
X132821833Y-40375095D01*
X132869452Y-40279857D01*
X132917071Y-40232238D01*
X133012309Y-40184619D01*
X133250404Y-40184619D01*
X133345642Y-40232238D01*
X133393261Y-40279857D01*
X133440880Y-40375095D01*
X133440880Y-40613190D01*
X133393261Y-40708428D01*
X133345642Y-40756047D01*
X132440880Y-39851285D02*
X132440880Y-39184619D01*
X133440880Y-39613190D01*
X133440880Y-38803666D02*
X132774214Y-38803666D01*
X132869452Y-38803666D02*
X132821833Y-38756047D01*
X132774214Y-38660809D01*
X132774214Y-38517952D01*
X132821833Y-38422714D01*
X132917071Y-38375095D01*
X133440880Y-38375095D01*
X132917071Y-38375095D02*
X132821833Y-38327476D01*
X132774214Y-38232238D01*
X132774214Y-38089380D01*
X132821833Y-37994142D01*
X132917071Y-37946523D01*
X133440880Y-37946523D01*
X133440880Y-37470333D02*
X132774214Y-37470333D01*
X132869452Y-37470333D02*
X132821833Y-37422714D01*
X132774214Y-37327476D01*
X132774214Y-37184619D01*
X132821833Y-37089380D01*
X132917071Y-37041761D01*
X133440880Y-37041761D01*
X132917071Y-37041761D02*
X132821833Y-36994142D01*
X132774214Y-36898904D01*
X132774214Y-36756047D01*
X132821833Y-36660809D01*
X132917071Y-36613190D01*
X133440880Y-36613190D01*
%TO.C,J3*%
X113756571Y-69113476D02*
X113804190Y-68970619D01*
X113851809Y-68923000D01*
X113947047Y-68875380D01*
X114089904Y-68875380D01*
X114185142Y-68923000D01*
X114232761Y-68970619D01*
X114280380Y-69065857D01*
X114280380Y-69446809D01*
X113280380Y-69446809D01*
X113280380Y-69113476D01*
X113328000Y-69018238D01*
X113375619Y-68970619D01*
X113470857Y-68923000D01*
X113566095Y-68923000D01*
X113661333Y-68970619D01*
X113708952Y-69018238D01*
X113756571Y-69113476D01*
X113756571Y-69446809D01*
X114280380Y-68303952D02*
X114232761Y-68399190D01*
X114185142Y-68446809D01*
X114089904Y-68494428D01*
X113804190Y-68494428D01*
X113708952Y-68446809D01*
X113661333Y-68399190D01*
X113613714Y-68303952D01*
X113613714Y-68161095D01*
X113661333Y-68065857D01*
X113708952Y-68018238D01*
X113804190Y-67970619D01*
X114089904Y-67970619D01*
X114185142Y-68018238D01*
X114232761Y-68065857D01*
X114280380Y-68161095D01*
X114280380Y-68303952D01*
X114280380Y-67113476D02*
X113756571Y-67113476D01*
X113661333Y-67161095D01*
X113613714Y-67256333D01*
X113613714Y-67446809D01*
X113661333Y-67542047D01*
X114232761Y-67113476D02*
X114280380Y-67208714D01*
X114280380Y-67446809D01*
X114232761Y-67542047D01*
X114137523Y-67589666D01*
X114042285Y-67589666D01*
X113947047Y-67542047D01*
X113899428Y-67446809D01*
X113899428Y-67208714D01*
X113851809Y-67113476D01*
X114280380Y-66637285D02*
X113613714Y-66637285D01*
X113804190Y-66637285D02*
X113708952Y-66589666D01*
X113661333Y-66542047D01*
X113613714Y-66446809D01*
X113613714Y-66351571D01*
X114280380Y-65589666D02*
X113280380Y-65589666D01*
X114232761Y-65589666D02*
X114280380Y-65684904D01*
X114280380Y-65875380D01*
X114232761Y-65970619D01*
X114185142Y-66018238D01*
X114089904Y-66065857D01*
X113804190Y-66065857D01*
X113708952Y-66018238D01*
X113661333Y-65970619D01*
X113613714Y-65875380D01*
X113613714Y-65684904D01*
X113661333Y-65589666D01*
X113280380Y-64494428D02*
X113280380Y-63923000D01*
X114280380Y-64208714D02*
X113280380Y-64208714D01*
X114280380Y-63589666D02*
X113280380Y-63589666D01*
X114280380Y-63161095D02*
X113756571Y-63161095D01*
X113661333Y-63208714D01*
X113613714Y-63303952D01*
X113613714Y-63446809D01*
X113661333Y-63542047D01*
X113708952Y-63589666D01*
X114280380Y-62684904D02*
X113613714Y-62684904D01*
X113280380Y-62684904D02*
X113328000Y-62732523D01*
X113375619Y-62684904D01*
X113328000Y-62637285D01*
X113280380Y-62684904D01*
X113375619Y-62684904D01*
X114232761Y-61780142D02*
X114280380Y-61875380D01*
X114280380Y-62065857D01*
X114232761Y-62161095D01*
X114185142Y-62208714D01*
X114089904Y-62256333D01*
X113804190Y-62256333D01*
X113708952Y-62208714D01*
X113661333Y-62161095D01*
X113613714Y-62065857D01*
X113613714Y-61875380D01*
X113661333Y-61780142D01*
X114280380Y-61351571D02*
X113280380Y-61351571D01*
X113899428Y-61256333D02*
X114280380Y-60970619D01*
X113613714Y-60970619D02*
X113994666Y-61351571D01*
X113613714Y-60542047D02*
X114280380Y-60542047D01*
X113708952Y-60542047D02*
X113661333Y-60494428D01*
X113613714Y-60399190D01*
X113613714Y-60256333D01*
X113661333Y-60161095D01*
X113756571Y-60113476D01*
X114280380Y-60113476D01*
X114232761Y-59256333D02*
X114280380Y-59351571D01*
X114280380Y-59542047D01*
X114232761Y-59637285D01*
X114137523Y-59684904D01*
X113756571Y-59684904D01*
X113661333Y-59637285D01*
X113613714Y-59542047D01*
X113613714Y-59351571D01*
X113661333Y-59256333D01*
X113756571Y-59208714D01*
X113851809Y-59208714D01*
X113947047Y-59684904D01*
X114232761Y-58827761D02*
X114280380Y-58732523D01*
X114280380Y-58542047D01*
X114232761Y-58446809D01*
X114137523Y-58399190D01*
X114089904Y-58399190D01*
X113994666Y-58446809D01*
X113947047Y-58542047D01*
X113947047Y-58684904D01*
X113899428Y-58780142D01*
X113804190Y-58827761D01*
X113756571Y-58827761D01*
X113661333Y-58780142D01*
X113613714Y-58684904D01*
X113613714Y-58542047D01*
X113661333Y-58446809D01*
X114232761Y-58018238D02*
X114280380Y-57923000D01*
X114280380Y-57732523D01*
X114232761Y-57637285D01*
X114137523Y-57589666D01*
X114089904Y-57589666D01*
X113994666Y-57637285D01*
X113947047Y-57732523D01*
X113947047Y-57875380D01*
X113899428Y-57970619D01*
X113804190Y-58018238D01*
X113756571Y-58018238D01*
X113661333Y-57970619D01*
X113613714Y-57875380D01*
X113613714Y-57732523D01*
X113661333Y-57637285D01*
X114185142Y-57161095D02*
X114232761Y-57113476D01*
X114280380Y-57161095D01*
X114232761Y-57208714D01*
X114185142Y-57161095D01*
X114280380Y-57161095D01*
X113661333Y-57161095D02*
X113708952Y-57113476D01*
X113756571Y-57161095D01*
X113708952Y-57208714D01*
X113661333Y-57161095D01*
X113756571Y-57161095D01*
X114280380Y-55399190D02*
X114280380Y-55970619D01*
X114280380Y-55684904D02*
X113280380Y-55684904D01*
X113423238Y-55780142D01*
X113518476Y-55875380D01*
X113566095Y-55970619D01*
X114185142Y-54970619D02*
X114232761Y-54923000D01*
X114280380Y-54970619D01*
X114232761Y-55018238D01*
X114185142Y-54970619D01*
X114280380Y-54970619D01*
X113280380Y-54018238D02*
X113280380Y-54494428D01*
X113756571Y-54542047D01*
X113708952Y-54494428D01*
X113661333Y-54399190D01*
X113661333Y-54161095D01*
X113708952Y-54065857D01*
X113756571Y-54018238D01*
X113851809Y-53970619D01*
X114089904Y-53970619D01*
X114185142Y-54018238D01*
X114232761Y-54065857D01*
X114280380Y-54161095D01*
X114280380Y-54399190D01*
X114232761Y-54494428D01*
X114185142Y-54542047D01*
X113280380Y-53637285D02*
X113280380Y-52970619D01*
X114280380Y-53399190D01*
X114280380Y-52589666D02*
X113613714Y-52589666D01*
X113708952Y-52589666D02*
X113661333Y-52542047D01*
X113613714Y-52446809D01*
X113613714Y-52303952D01*
X113661333Y-52208714D01*
X113756571Y-52161095D01*
X114280380Y-52161095D01*
X113756571Y-52161095D02*
X113661333Y-52113476D01*
X113613714Y-52018238D01*
X113613714Y-51875380D01*
X113661333Y-51780142D01*
X113756571Y-51732523D01*
X114280380Y-51732523D01*
X114280380Y-51256333D02*
X113613714Y-51256333D01*
X113708952Y-51256333D02*
X113661333Y-51208714D01*
X113613714Y-51113476D01*
X113613714Y-50970619D01*
X113661333Y-50875380D01*
X113756571Y-50827761D01*
X114280380Y-50827761D01*
X113756571Y-50827761D02*
X113661333Y-50780142D01*
X113613714Y-50684904D01*
X113613714Y-50542047D01*
X113661333Y-50446809D01*
X113756571Y-50399190D01*
X114280380Y-50399190D01*
%TO.C,J14*%
X132986571Y-80132476D02*
X133034190Y-79989619D01*
X133081809Y-79942000D01*
X133177047Y-79894380D01*
X133319904Y-79894380D01*
X133415142Y-79942000D01*
X133462761Y-79989619D01*
X133510380Y-80084857D01*
X133510380Y-80465809D01*
X132510380Y-80465809D01*
X132510380Y-80132476D01*
X132558000Y-80037238D01*
X132605619Y-79989619D01*
X132700857Y-79942000D01*
X132796095Y-79942000D01*
X132891333Y-79989619D01*
X132938952Y-80037238D01*
X132986571Y-80132476D01*
X132986571Y-80465809D01*
X133510380Y-79322952D02*
X133462761Y-79418190D01*
X133415142Y-79465809D01*
X133319904Y-79513428D01*
X133034190Y-79513428D01*
X132938952Y-79465809D01*
X132891333Y-79418190D01*
X132843714Y-79322952D01*
X132843714Y-79180095D01*
X132891333Y-79084857D01*
X132938952Y-79037238D01*
X133034190Y-78989619D01*
X133319904Y-78989619D01*
X133415142Y-79037238D01*
X133462761Y-79084857D01*
X133510380Y-79180095D01*
X133510380Y-79322952D01*
X133510380Y-78132476D02*
X132986571Y-78132476D01*
X132891333Y-78180095D01*
X132843714Y-78275333D01*
X132843714Y-78465809D01*
X132891333Y-78561047D01*
X133462761Y-78132476D02*
X133510380Y-78227714D01*
X133510380Y-78465809D01*
X133462761Y-78561047D01*
X133367523Y-78608666D01*
X133272285Y-78608666D01*
X133177047Y-78561047D01*
X133129428Y-78465809D01*
X133129428Y-78227714D01*
X133081809Y-78132476D01*
X133510380Y-77656285D02*
X132843714Y-77656285D01*
X133034190Y-77656285D02*
X132938952Y-77608666D01*
X132891333Y-77561047D01*
X132843714Y-77465809D01*
X132843714Y-77370571D01*
X133510380Y-76608666D02*
X132510380Y-76608666D01*
X133462761Y-76608666D02*
X133510380Y-76703904D01*
X133510380Y-76894380D01*
X133462761Y-76989619D01*
X133415142Y-77037238D01*
X133319904Y-77084857D01*
X133034190Y-77084857D01*
X132938952Y-77037238D01*
X132891333Y-76989619D01*
X132843714Y-76894380D01*
X132843714Y-76703904D01*
X132891333Y-76608666D01*
X132510380Y-75513428D02*
X132510380Y-74942000D01*
X133510380Y-75227714D02*
X132510380Y-75227714D01*
X133510380Y-74608666D02*
X132510380Y-74608666D01*
X133510380Y-74180095D02*
X132986571Y-74180095D01*
X132891333Y-74227714D01*
X132843714Y-74322952D01*
X132843714Y-74465809D01*
X132891333Y-74561047D01*
X132938952Y-74608666D01*
X133510380Y-73703904D02*
X132843714Y-73703904D01*
X132510380Y-73703904D02*
X132558000Y-73751523D01*
X132605619Y-73703904D01*
X132558000Y-73656285D01*
X132510380Y-73703904D01*
X132605619Y-73703904D01*
X133462761Y-72799142D02*
X133510380Y-72894380D01*
X133510380Y-73084857D01*
X133462761Y-73180095D01*
X133415142Y-73227714D01*
X133319904Y-73275333D01*
X133034190Y-73275333D01*
X132938952Y-73227714D01*
X132891333Y-73180095D01*
X132843714Y-73084857D01*
X132843714Y-72894380D01*
X132891333Y-72799142D01*
X133510380Y-72370571D02*
X132510380Y-72370571D01*
X133129428Y-72275333D02*
X133510380Y-71989619D01*
X132843714Y-71989619D02*
X133224666Y-72370571D01*
X132843714Y-71561047D02*
X133510380Y-71561047D01*
X132938952Y-71561047D02*
X132891333Y-71513428D01*
X132843714Y-71418190D01*
X132843714Y-71275333D01*
X132891333Y-71180095D01*
X132986571Y-71132476D01*
X133510380Y-71132476D01*
X133462761Y-70275333D02*
X133510380Y-70370571D01*
X133510380Y-70561047D01*
X133462761Y-70656285D01*
X133367523Y-70703904D01*
X132986571Y-70703904D01*
X132891333Y-70656285D01*
X132843714Y-70561047D01*
X132843714Y-70370571D01*
X132891333Y-70275333D01*
X132986571Y-70227714D01*
X133081809Y-70227714D01*
X133177047Y-70703904D01*
X133462761Y-69846761D02*
X133510380Y-69751523D01*
X133510380Y-69561047D01*
X133462761Y-69465809D01*
X133367523Y-69418190D01*
X133319904Y-69418190D01*
X133224666Y-69465809D01*
X133177047Y-69561047D01*
X133177047Y-69703904D01*
X133129428Y-69799142D01*
X133034190Y-69846761D01*
X132986571Y-69846761D01*
X132891333Y-69799142D01*
X132843714Y-69703904D01*
X132843714Y-69561047D01*
X132891333Y-69465809D01*
X133462761Y-69037238D02*
X133510380Y-68942000D01*
X133510380Y-68751523D01*
X133462761Y-68656285D01*
X133367523Y-68608666D01*
X133319904Y-68608666D01*
X133224666Y-68656285D01*
X133177047Y-68751523D01*
X133177047Y-68894380D01*
X133129428Y-68989619D01*
X133034190Y-69037238D01*
X132986571Y-69037238D01*
X132891333Y-68989619D01*
X132843714Y-68894380D01*
X132843714Y-68751523D01*
X132891333Y-68656285D01*
X133415142Y-68180095D02*
X133462761Y-68132476D01*
X133510380Y-68180095D01*
X133462761Y-68227714D01*
X133415142Y-68180095D01*
X133510380Y-68180095D01*
X132891333Y-68180095D02*
X132938952Y-68132476D01*
X132986571Y-68180095D01*
X132938952Y-68227714D01*
X132891333Y-68180095D01*
X132986571Y-68180095D01*
X133510380Y-66418190D02*
X133510380Y-66989619D01*
X133510380Y-66703904D02*
X132510380Y-66703904D01*
X132653238Y-66799142D01*
X132748476Y-66894380D01*
X132796095Y-66989619D01*
X133415142Y-65989619D02*
X133462761Y-65942000D01*
X133510380Y-65989619D01*
X133462761Y-66037238D01*
X133415142Y-65989619D01*
X133510380Y-65989619D01*
X132510380Y-65037238D02*
X132510380Y-65513428D01*
X132986571Y-65561047D01*
X132938952Y-65513428D01*
X132891333Y-65418190D01*
X132891333Y-65180095D01*
X132938952Y-65084857D01*
X132986571Y-65037238D01*
X133081809Y-64989619D01*
X133319904Y-64989619D01*
X133415142Y-65037238D01*
X133462761Y-65084857D01*
X133510380Y-65180095D01*
X133510380Y-65418190D01*
X133462761Y-65513428D01*
X133415142Y-65561047D01*
X132510380Y-64656285D02*
X132510380Y-63989619D01*
X133510380Y-64418190D01*
X133510380Y-63608666D02*
X132843714Y-63608666D01*
X132938952Y-63608666D02*
X132891333Y-63561047D01*
X132843714Y-63465809D01*
X132843714Y-63322952D01*
X132891333Y-63227714D01*
X132986571Y-63180095D01*
X133510380Y-63180095D01*
X132986571Y-63180095D02*
X132891333Y-63132476D01*
X132843714Y-63037238D01*
X132843714Y-62894380D01*
X132891333Y-62799142D01*
X132986571Y-62751523D01*
X133510380Y-62751523D01*
X133510380Y-62275333D02*
X132843714Y-62275333D01*
X132938952Y-62275333D02*
X132891333Y-62227714D01*
X132843714Y-62132476D01*
X132843714Y-61989619D01*
X132891333Y-61894380D01*
X132986571Y-61846761D01*
X133510380Y-61846761D01*
X132986571Y-61846761D02*
X132891333Y-61799142D01*
X132843714Y-61703904D01*
X132843714Y-61561047D01*
X132891333Y-61465809D01*
X132986571Y-61418190D01*
X133510380Y-61418190D01*
%TO.C,J4*%
X113600571Y-55456476D02*
X113648190Y-55313619D01*
X113695809Y-55266000D01*
X113791047Y-55218380D01*
X113933904Y-55218380D01*
X114029142Y-55266000D01*
X114076761Y-55313619D01*
X114124380Y-55408857D01*
X114124380Y-55789809D01*
X113124380Y-55789809D01*
X113124380Y-55456476D01*
X113172000Y-55361238D01*
X113219619Y-55313619D01*
X113314857Y-55266000D01*
X113410095Y-55266000D01*
X113505333Y-55313619D01*
X113552952Y-55361238D01*
X113600571Y-55456476D01*
X113600571Y-55789809D01*
X114124380Y-54646952D02*
X114076761Y-54742190D01*
X114029142Y-54789809D01*
X113933904Y-54837428D01*
X113648190Y-54837428D01*
X113552952Y-54789809D01*
X113505333Y-54742190D01*
X113457714Y-54646952D01*
X113457714Y-54504095D01*
X113505333Y-54408857D01*
X113552952Y-54361238D01*
X113648190Y-54313619D01*
X113933904Y-54313619D01*
X114029142Y-54361238D01*
X114076761Y-54408857D01*
X114124380Y-54504095D01*
X114124380Y-54646952D01*
X114124380Y-53456476D02*
X113600571Y-53456476D01*
X113505333Y-53504095D01*
X113457714Y-53599333D01*
X113457714Y-53789809D01*
X113505333Y-53885047D01*
X114076761Y-53456476D02*
X114124380Y-53551714D01*
X114124380Y-53789809D01*
X114076761Y-53885047D01*
X113981523Y-53932666D01*
X113886285Y-53932666D01*
X113791047Y-53885047D01*
X113743428Y-53789809D01*
X113743428Y-53551714D01*
X113695809Y-53456476D01*
X114124380Y-52980285D02*
X113457714Y-52980285D01*
X113648190Y-52980285D02*
X113552952Y-52932666D01*
X113505333Y-52885047D01*
X113457714Y-52789809D01*
X113457714Y-52694571D01*
X114124380Y-51932666D02*
X113124380Y-51932666D01*
X114076761Y-51932666D02*
X114124380Y-52027904D01*
X114124380Y-52218380D01*
X114076761Y-52313619D01*
X114029142Y-52361238D01*
X113933904Y-52408857D01*
X113648190Y-52408857D01*
X113552952Y-52361238D01*
X113505333Y-52313619D01*
X113457714Y-52218380D01*
X113457714Y-52027904D01*
X113505333Y-51932666D01*
X113124380Y-50837428D02*
X113124380Y-50266000D01*
X114124380Y-50551714D02*
X113124380Y-50551714D01*
X114124380Y-49932666D02*
X113124380Y-49932666D01*
X114124380Y-49504095D02*
X113600571Y-49504095D01*
X113505333Y-49551714D01*
X113457714Y-49646952D01*
X113457714Y-49789809D01*
X113505333Y-49885047D01*
X113552952Y-49932666D01*
X114124380Y-49027904D02*
X113457714Y-49027904D01*
X113124380Y-49027904D02*
X113172000Y-49075523D01*
X113219619Y-49027904D01*
X113172000Y-48980285D01*
X113124380Y-49027904D01*
X113219619Y-49027904D01*
X114076761Y-48123142D02*
X114124380Y-48218380D01*
X114124380Y-48408857D01*
X114076761Y-48504095D01*
X114029142Y-48551714D01*
X113933904Y-48599333D01*
X113648190Y-48599333D01*
X113552952Y-48551714D01*
X113505333Y-48504095D01*
X113457714Y-48408857D01*
X113457714Y-48218380D01*
X113505333Y-48123142D01*
X114124380Y-47694571D02*
X113124380Y-47694571D01*
X113743428Y-47599333D02*
X114124380Y-47313619D01*
X113457714Y-47313619D02*
X113838666Y-47694571D01*
X113457714Y-46885047D02*
X114124380Y-46885047D01*
X113552952Y-46885047D02*
X113505333Y-46837428D01*
X113457714Y-46742190D01*
X113457714Y-46599333D01*
X113505333Y-46504095D01*
X113600571Y-46456476D01*
X114124380Y-46456476D01*
X114076761Y-45599333D02*
X114124380Y-45694571D01*
X114124380Y-45885047D01*
X114076761Y-45980285D01*
X113981523Y-46027904D01*
X113600571Y-46027904D01*
X113505333Y-45980285D01*
X113457714Y-45885047D01*
X113457714Y-45694571D01*
X113505333Y-45599333D01*
X113600571Y-45551714D01*
X113695809Y-45551714D01*
X113791047Y-46027904D01*
X114076761Y-45170761D02*
X114124380Y-45075523D01*
X114124380Y-44885047D01*
X114076761Y-44789809D01*
X113981523Y-44742190D01*
X113933904Y-44742190D01*
X113838666Y-44789809D01*
X113791047Y-44885047D01*
X113791047Y-45027904D01*
X113743428Y-45123142D01*
X113648190Y-45170761D01*
X113600571Y-45170761D01*
X113505333Y-45123142D01*
X113457714Y-45027904D01*
X113457714Y-44885047D01*
X113505333Y-44789809D01*
X114076761Y-44361238D02*
X114124380Y-44266000D01*
X114124380Y-44075523D01*
X114076761Y-43980285D01*
X113981523Y-43932666D01*
X113933904Y-43932666D01*
X113838666Y-43980285D01*
X113791047Y-44075523D01*
X113791047Y-44218380D01*
X113743428Y-44313619D01*
X113648190Y-44361238D01*
X113600571Y-44361238D01*
X113505333Y-44313619D01*
X113457714Y-44218380D01*
X113457714Y-44075523D01*
X113505333Y-43980285D01*
X114029142Y-43504095D02*
X114076761Y-43456476D01*
X114124380Y-43504095D01*
X114076761Y-43551714D01*
X114029142Y-43504095D01*
X114124380Y-43504095D01*
X113505333Y-43504095D02*
X113552952Y-43456476D01*
X113600571Y-43504095D01*
X113552952Y-43551714D01*
X113505333Y-43504095D01*
X113600571Y-43504095D01*
X114124380Y-41742190D02*
X114124380Y-42313619D01*
X114124380Y-42027904D02*
X113124380Y-42027904D01*
X113267238Y-42123142D01*
X113362476Y-42218380D01*
X113410095Y-42313619D01*
X114029142Y-41313619D02*
X114076761Y-41266000D01*
X114124380Y-41313619D01*
X114076761Y-41361238D01*
X114029142Y-41313619D01*
X114124380Y-41313619D01*
X113124380Y-40361238D02*
X113124380Y-40837428D01*
X113600571Y-40885047D01*
X113552952Y-40837428D01*
X113505333Y-40742190D01*
X113505333Y-40504095D01*
X113552952Y-40408857D01*
X113600571Y-40361238D01*
X113695809Y-40313619D01*
X113933904Y-40313619D01*
X114029142Y-40361238D01*
X114076761Y-40408857D01*
X114124380Y-40504095D01*
X114124380Y-40742190D01*
X114076761Y-40837428D01*
X114029142Y-40885047D01*
X113124380Y-39980285D02*
X113124380Y-39313619D01*
X114124380Y-39742190D01*
X114124380Y-38932666D02*
X113457714Y-38932666D01*
X113552952Y-38932666D02*
X113505333Y-38885047D01*
X113457714Y-38789809D01*
X113457714Y-38646952D01*
X113505333Y-38551714D01*
X113600571Y-38504095D01*
X114124380Y-38504095D01*
X113600571Y-38504095D02*
X113505333Y-38456476D01*
X113457714Y-38361238D01*
X113457714Y-38218380D01*
X113505333Y-38123142D01*
X113600571Y-38075523D01*
X114124380Y-38075523D01*
X114124380Y-37599333D02*
X113457714Y-37599333D01*
X113552952Y-37599333D02*
X113505333Y-37551714D01*
X113457714Y-37456476D01*
X113457714Y-37313619D01*
X113505333Y-37218380D01*
X113600571Y-37170761D01*
X114124380Y-37170761D01*
X113600571Y-37170761D02*
X113505333Y-37123142D01*
X113457714Y-37027904D01*
X113457714Y-36885047D01*
X113505333Y-36789809D01*
X113600571Y-36742190D01*
X114124380Y-36742190D01*
%TO.C,H4*%
X140038000Y-36127000D02*
G75*
G03*
X140038000Y-36127000I-2800000J0D01*
G01*
%TO.C,H1*%
X112592000Y-35945000D02*
G75*
G03*
X112592000Y-35945000I-2800000J0D01*
G01*
%TO.C,H3*%
X140376000Y-80097000D02*
G75*
G03*
X140376000Y-80097000I-2800000J0D01*
G01*
%TO.C,H2*%
X111864000Y-80154000D02*
G75*
G03*
X111864000Y-80154000I-2800000J0D01*
G01*
%TD*%
M02*
