%TF.GenerationSoftware,KiCad,Pcbnew,(6.0.9)*%
%TF.CreationDate,2022-12-23T15:52:02-08:00*%
%TF.ProjectId,pdm_mic_brd,70646d5f-6d69-4635-9f62-72642e6b6963,rev?*%
%TF.SameCoordinates,Original*%
%TF.FileFunction,Copper,L1,Top*%
%TF.FilePolarity,Positive*%
%FSLAX46Y46*%
G04 Gerber Fmt 4.6, Leading zero omitted, Abs format (unit mm)*
G04 Created by KiCad (PCBNEW (6.0.9)) date 2022-12-23 15:52:02*
%MOMM*%
%LPD*%
G01*
G04 APERTURE LIST*
G04 Aperture macros list*
%AMRoundRect*
0 Rectangle with rounded corners*
0 $1 Rounding radius*
0 $2 $3 $4 $5 $6 $7 $8 $9 X,Y pos of 4 corners*
0 Add a 4 corners polygon primitive as box body*
4,1,4,$2,$3,$4,$5,$6,$7,$8,$9,$2,$3,0*
0 Add four circle primitives for the rounded corners*
1,1,$1+$1,$2,$3*
1,1,$1+$1,$4,$5*
1,1,$1+$1,$6,$7*
1,1,$1+$1,$8,$9*
0 Add four rect primitives between the rounded corners*
20,1,$1+$1,$2,$3,$4,$5,0*
20,1,$1+$1,$4,$5,$6,$7,0*
20,1,$1+$1,$6,$7,$8,$9,0*
20,1,$1+$1,$8,$9,$2,$3,0*%
G04 Aperture macros list end*
%ADD10C,0.300000*%
%TA.AperFunction,NonConductor*%
%ADD11C,0.300000*%
%TD*%
%TA.AperFunction,ComponentPad*%
%ADD12R,1.700000X1.700000*%
%TD*%
%TA.AperFunction,ComponentPad*%
%ADD13O,1.700000X1.700000*%
%TD*%
%TA.AperFunction,SMDPad,CuDef*%
%ADD14RoundRect,0.250000X-0.250000X-0.475000X0.250000X-0.475000X0.250000X0.475000X-0.250000X0.475000X0*%
%TD*%
%TA.AperFunction,SMDPad,CuDef*%
%ADD15RoundRect,0.140000X-0.140000X-0.170000X0.140000X-0.170000X0.140000X0.170000X-0.140000X0.170000X0*%
%TD*%
%TA.AperFunction,SMDPad,CuDef*%
%ADD16RoundRect,0.218750X0.256250X-0.218750X0.256250X0.218750X-0.256250X0.218750X-0.256250X-0.218750X0*%
%TD*%
%TA.AperFunction,SMDPad,CuDef*%
%ADD17R,3.600000X1.270000*%
%TD*%
%TA.AperFunction,SMDPad,CuDef*%
%ADD18R,4.200000X1.350000*%
%TD*%
%TA.AperFunction,SMDPad,CuDef*%
%ADD19RoundRect,0.135000X0.135000X0.185000X-0.135000X0.185000X-0.135000X-0.185000X0.135000X-0.185000X0*%
%TD*%
%TA.AperFunction,SMDPad,CuDef*%
%ADD20RoundRect,0.218750X0.218750X0.256250X-0.218750X0.256250X-0.218750X-0.256250X0.218750X-0.256250X0*%
%TD*%
%TA.AperFunction,SMDPad,CuDef*%
%ADD21RoundRect,0.140000X0.140000X0.170000X-0.140000X0.170000X-0.140000X-0.170000X0.140000X-0.170000X0*%
%TD*%
%TA.AperFunction,SMDPad,CuDef*%
%ADD22C,0.215000*%
%TD*%
%TA.AperFunction,ComponentPad*%
%ADD23C,3.600000*%
%TD*%
%TA.AperFunction,ConnectorPad*%
%ADD24C,5.600000*%
%TD*%
%TA.AperFunction,SMDPad,CuDef*%
%ADD25RoundRect,0.135000X-0.185000X0.135000X-0.185000X-0.135000X0.185000X-0.135000X0.185000X0.135000X0*%
%TD*%
%TA.AperFunction,SMDPad,CuDef*%
%ADD26R,2.200000X2.800000*%
%TD*%
%TA.AperFunction,SMDPad,CuDef*%
%ADD27R,2.800000X2.800000*%
%TD*%
%TA.AperFunction,SMDPad,CuDef*%
%ADD28RoundRect,0.135000X-0.135000X-0.185000X0.135000X-0.185000X0.135000X0.185000X-0.135000X0.185000X0*%
%TD*%
%TA.AperFunction,SMDPad,CuDef*%
%ADD29RoundRect,0.250000X0.475000X-0.250000X0.475000X0.250000X-0.475000X0.250000X-0.475000X-0.250000X0*%
%TD*%
%TA.AperFunction,SMDPad,CuDef*%
%ADD30RoundRect,0.075000X0.075000X-0.650000X0.075000X0.650000X-0.075000X0.650000X-0.075000X-0.650000X0*%
%TD*%
%TA.AperFunction,SMDPad,CuDef*%
%ADD31R,1.880000X1.680000*%
%TD*%
%TA.AperFunction,SMDPad,CuDef*%
%ADD32RoundRect,0.135000X0.185000X-0.135000X0.185000X0.135000X-0.185000X0.135000X-0.185000X-0.135000X0*%
%TD*%
%TA.AperFunction,ComponentPad*%
%ADD33C,2.000000*%
%TD*%
%TA.AperFunction,SMDPad,CuDef*%
%ADD34RoundRect,0.218750X-0.256250X0.218750X-0.256250X-0.218750X0.256250X-0.218750X0.256250X0.218750X0*%
%TD*%
%TA.AperFunction,SMDPad,CuDef*%
%ADD35R,0.400000X1.350000*%
%TD*%
%TA.AperFunction,SMDPad,CuDef*%
%ADD36R,1.500000X1.900000*%
%TD*%
%TA.AperFunction,ComponentPad*%
%ADD37C,1.450000*%
%TD*%
%TA.AperFunction,ComponentPad*%
%ADD38O,1.200000X1.900000*%
%TD*%
%TA.AperFunction,SMDPad,CuDef*%
%ADD39R,1.200000X1.900000*%
%TD*%
%TA.AperFunction,ViaPad*%
%ADD40C,0.450000*%
%TD*%
%TA.AperFunction,Conductor*%
%ADD41C,0.254000*%
%TD*%
%TA.AperFunction,Conductor*%
%ADD42C,0.200000*%
%TD*%
G04 APERTURE END LIST*
D10*
D11*
X114478276Y-33697571D02*
X114665776Y-32197571D01*
X115237205Y-32197571D01*
X115371133Y-32269000D01*
X115433633Y-32340428D01*
X115487205Y-32483285D01*
X115460419Y-32697571D01*
X115371133Y-32840428D01*
X115290776Y-32911857D01*
X115138991Y-32983285D01*
X114567562Y-32983285D01*
X115978276Y-33697571D02*
X116165776Y-32197571D01*
X116522919Y-32197571D01*
X116728276Y-32269000D01*
X116853276Y-32411857D01*
X116906848Y-32554714D01*
X116942562Y-32840428D01*
X116915776Y-33054714D01*
X116808633Y-33340428D01*
X116719348Y-33483285D01*
X116558633Y-33626142D01*
X116335419Y-33697571D01*
X115978276Y-33697571D01*
X117478276Y-33697571D02*
X117665776Y-32197571D01*
X118031848Y-33269000D01*
X118665776Y-32197571D01*
X118478276Y-33697571D01*
X119790776Y-32911857D02*
X119996133Y-32983285D01*
X120058633Y-33054714D01*
X120112205Y-33197571D01*
X120085419Y-33411857D01*
X119996133Y-33554714D01*
X119915776Y-33626142D01*
X119763991Y-33697571D01*
X119192562Y-33697571D01*
X119380062Y-32197571D01*
X119880062Y-32197571D01*
X120013991Y-32269000D01*
X120076491Y-32340428D01*
X120130062Y-32483285D01*
X120112205Y-32626142D01*
X120022919Y-32769000D01*
X119942562Y-32840428D01*
X119790776Y-32911857D01*
X119290776Y-32911857D01*
X121549705Y-33697571D02*
X121138991Y-32983285D01*
X120692562Y-33697571D02*
X120880062Y-32197571D01*
X121451491Y-32197571D01*
X121585419Y-32269000D01*
X121647919Y-32340428D01*
X121701491Y-32483285D01*
X121674705Y-32697571D01*
X121585419Y-32840428D01*
X121505062Y-32911857D01*
X121353276Y-32983285D01*
X120781848Y-32983285D01*
X122192562Y-33697571D02*
X122380062Y-32197571D01*
X122737205Y-32197571D01*
X122942562Y-32269000D01*
X123067562Y-32411857D01*
X123121133Y-32554714D01*
X123156848Y-32840428D01*
X123130062Y-33054714D01*
X123022919Y-33340428D01*
X122933633Y-33483285D01*
X122772919Y-33626142D01*
X122549705Y-33697571D01*
X122192562Y-33697571D01*
X125692562Y-33697571D02*
X125281848Y-32983285D01*
X124835419Y-33697571D02*
X125022919Y-32197571D01*
X125594348Y-32197571D01*
X125728276Y-32269000D01*
X125790776Y-32340428D01*
X125844348Y-32483285D01*
X125817562Y-32697571D01*
X125728276Y-32840428D01*
X125647919Y-32911857D01*
X125496133Y-32983285D01*
X124924705Y-32983285D01*
X126433633Y-32911857D02*
X126933633Y-32911857D01*
X127049705Y-33697571D02*
X126335419Y-33697571D01*
X126522919Y-32197571D01*
X127237205Y-32197571D01*
X127665776Y-32197571D02*
X127978276Y-33697571D01*
X128665776Y-32197571D01*
X128960419Y-33269000D02*
X129674705Y-33269000D01*
X128763991Y-33697571D02*
X129451491Y-32197571D01*
X129763991Y-33697571D01*
D12*
%TO.P,J6,1,Pin_1*%
%TO.N,Net-(J6-Pad1)*%
X115555000Y-42088000D03*
D13*
%TO.P,J6,2,Pin_2*%
%TO.N,PDAT_SMA*%
X115555000Y-44628000D03*
%TD*%
D12*
%TO.P,J5,1,Pin_1*%
%TO.N,PDAT_SMA*%
X113118000Y-51322000D03*
D13*
%TO.P,J5,2,Pin_2*%
%TO.N,Net-(J4-Pad1)*%
X113118000Y-48782000D03*
%TD*%
D14*
%TO.P,C1,1*%
%TO.N,V_IN*%
X114052000Y-75896000D03*
%TO.P,C1,2*%
%TO.N,GND*%
X115952000Y-75896000D03*
%TD*%
D15*
%TO.P,C9,1*%
%TO.N,VDDA*%
X133030000Y-73461500D03*
%TO.P,C9,2*%
%TO.N,GND*%
X133990000Y-73461500D03*
%TD*%
D16*
%TO.P,FB2,1*%
%TO.N,V_PDM_R*%
X133042000Y-76355000D03*
%TO.P,FB2,2*%
%TO.N,VDDA*%
X133042000Y-74780000D03*
%TD*%
D17*
%TO.P,J15,1,In*%
%TO.N,Net-(J13-Pad1)*%
X138638500Y-46137000D03*
D18*
%TO.P,J15,2,Ext*%
%TO.N,GND*%
X138438500Y-43312000D03*
X138438500Y-48962000D03*
%TD*%
D19*
%TO.P,R5,1*%
%TO.N,Net-(R5-Pad1)*%
X133225000Y-80752000D03*
%TO.P,R5,2*%
%TO.N,Net-(J7-Pad1)*%
X132205000Y-80752000D03*
%TD*%
D20*
%TO.P,D1,1,K*%
%TO.N,Net-(D1-Pad1)*%
X118366500Y-73785000D03*
%TO.P,D1,2,A*%
%TO.N,V_IN*%
X116791500Y-73785000D03*
%TD*%
D21*
%TO.P,C8,1*%
%TO.N,VDDA*%
X122168000Y-47789000D03*
%TO.P,C8,2*%
%TO.N,GND*%
X121208000Y-47789000D03*
%TD*%
D22*
%TO.P,U3,A1,CLK*%
%TO.N,Net-(J9-Pad1)*%
X132195000Y-79299819D03*
%TO.P,U3,A2,SEL*%
%TO.N,GND*%
X132195000Y-78899819D03*
%TO.P,U3,B1,GND*%
X132595000Y-79299819D03*
%TO.P,U3,B2,INPUT*%
%TO.N,Net-(C6-Pad1)*%
X132595000Y-78899819D03*
%TO.P,U3,C1,DAT*%
%TO.N,Net-(R5-Pad1)*%
X132995000Y-79299819D03*
%TO.P,U3,C2,VDD*%
%TO.N,V_PDM_R*%
X132995000Y-78899819D03*
%TD*%
D17*
%TO.P,J3,1,In*%
%TO.N,CLK_SMA*%
X108178000Y-59923000D03*
D18*
%TO.P,J3,2,Ext*%
%TO.N,GND*%
X108378000Y-57098000D03*
X108378000Y-62748000D03*
%TD*%
D12*
%TO.P,J1,1,Pin_1*%
%TO.N,Net-(J1-Pad1)*%
X116948000Y-62889000D03*
D13*
%TO.P,J1,2,Pin_2*%
%TO.N,Net-(C2-Pad1)*%
X114408000Y-62889000D03*
%TD*%
D23*
%TO.P,H4,1,1*%
%TO.N,GND*%
X137238000Y-36127000D03*
D24*
X137238000Y-36127000D03*
%TD*%
D19*
%TO.P,R4,1*%
%TO.N,Net-(R4-Pad1)*%
X121405000Y-42354000D03*
%TO.P,R4,2*%
%TO.N,Net-(J6-Pad1)*%
X120385000Y-42354000D03*
%TD*%
D12*
%TO.P,J11,1,Pin_1*%
%TO.N,Net-(C6-Pad2)*%
X128350000Y-77108000D03*
D13*
%TO.P,J11,2,Pin_2*%
%TO.N,Net-(J11-Pad2)*%
X128350000Y-74568000D03*
%TD*%
D17*
%TO.P,J14,1,In*%
%TO.N,Net-(J12-Pad1)*%
X138708000Y-70942000D03*
D18*
%TO.P,J14,2,Ext*%
%TO.N,GND*%
X138508000Y-73767000D03*
X138508000Y-68117000D03*
%TD*%
D23*
%TO.P,H1,1,1*%
%TO.N,GND*%
X109792000Y-35945000D03*
D24*
X109792000Y-35945000D03*
%TD*%
D12*
%TO.P,J13,1,Pin_1*%
%TO.N,Net-(J13-Pad1)*%
X132309000Y-50486000D03*
D13*
%TO.P,J13,2,Pin_2*%
%TO.N,Net-(C7-Pad2)*%
X129769000Y-50486000D03*
%TO.P,J13,3,Pin_3*%
%TO.N,LEFT*%
X127229000Y-50486000D03*
%TD*%
D12*
%TO.P,J7,1,Pin_1*%
%TO.N,Net-(J7-Pad1)*%
X122614000Y-70090000D03*
D13*
%TO.P,J7,2,Pin_2*%
%TO.N,PDAT_SMA*%
X122614000Y-67550000D03*
%TD*%
D17*
%TO.P,J4,1,In*%
%TO.N,Net-(J4-Pad1)*%
X108022000Y-46266000D03*
D18*
%TO.P,J4,2,Ext*%
%TO.N,GND*%
X108222000Y-43441000D03*
X108222000Y-49091000D03*
%TD*%
D25*
%TO.P,R6,1*%
%TO.N,V_PDM_L*%
X119263000Y-43770000D03*
%TO.P,R6,2*%
%TO.N,Net-(J10-Pad2)*%
X119263000Y-44790000D03*
%TD*%
D26*
%TO.P,J16,R*%
%TO.N,RIGHT*%
X133330000Y-63044000D03*
%TO.P,J16,S*%
%TO.N,GND*%
X135330000Y-55644000D03*
D27*
%TO.P,J16,T*%
%TO.N,LEFT*%
X125930000Y-55644000D03*
%TD*%
D28*
%TO.P,R2,1*%
%TO.N,Net-(J1-Pad1)*%
X116427000Y-65347000D03*
%TO.P,R2,2*%
%TO.N,GND*%
X117447000Y-65347000D03*
%TD*%
D21*
%TO.P,C4,1*%
%TO.N,V_PDM_L*%
X122183000Y-43662000D03*
%TO.P,C4,2*%
%TO.N,GND*%
X121223000Y-43662000D03*
%TD*%
D28*
%TO.P,R1,1*%
%TO.N,Net-(C2-Pad1)*%
X114338000Y-65326000D03*
%TO.P,R1,2*%
%TO.N,Net-(J1-Pad1)*%
X115358000Y-65326000D03*
%TD*%
D29*
%TO.P,C3,1*%
%TO.N,VDDA*%
X110742000Y-69179000D03*
%TO.P,C3,2*%
%TO.N,GND*%
X110742000Y-67279000D03*
%TD*%
D30*
%TO.P,U1,1,IN*%
%TO.N,V_IN*%
X112588000Y-73582000D03*
%TO.P,U1,2,IN*%
X113088000Y-73582000D03*
%TO.P,U1,3,EN/UV*%
X113588000Y-73582000D03*
%TO.P,U1,4,PG*%
%TO.N,unconnected-(U1-Pad4)*%
X114088000Y-73582000D03*
%TO.P,U1,5,ILIM*%
%TO.N,GND*%
X114588000Y-73582000D03*
%TO.P,U1,6,PGFB*%
%TO.N,V_IN*%
X114588000Y-69282000D03*
%TO.P,U1,7,SET*%
%TO.N,Net-(C2-Pad1)*%
X114088000Y-69282000D03*
%TO.P,U1,8,GND*%
%TO.N,GND*%
X113588000Y-69282000D03*
%TO.P,U1,9,OUTS*%
%TO.N,VDDA*%
X113088000Y-69282000D03*
%TO.P,U1,10,OUT*%
X112588000Y-69282000D03*
D31*
%TO.P,U1,11,GND*%
%TO.N,GND*%
X113588000Y-71432000D03*
%TD*%
D15*
%TO.P,C7,1*%
%TO.N,Net-(C7-Pad1)*%
X123231000Y-43665000D03*
%TO.P,C7,2*%
%TO.N,Net-(C7-Pad2)*%
X124191000Y-43665000D03*
%TD*%
D32*
%TO.P,R8,1*%
%TO.N,V_PDM_R*%
X131740000Y-76567000D03*
%TO.P,R8,2*%
%TO.N,Net-(J11-Pad2)*%
X131740000Y-75547000D03*
%TD*%
D28*
%TO.P,R7,1*%
%TO.N,Net-(J10-Pad2)*%
X119246000Y-45800000D03*
%TO.P,R7,2*%
%TO.N,GND*%
X120266000Y-45800000D03*
%TD*%
D33*
%TO.P,TP1,1,1*%
%TO.N,V_IN*%
X110153000Y-75324000D03*
%TD*%
D12*
%TO.P,J10,1,Pin_1*%
%TO.N,Net-(C7-Pad2)*%
X122881000Y-50500000D03*
D13*
%TO.P,J10,2,Pin_2*%
%TO.N,Net-(J10-Pad2)*%
X120341000Y-50500000D03*
%TD*%
D34*
%TO.P,FB1,1*%
%TO.N,V_PDM_L*%
X122179000Y-44926000D03*
%TO.P,FB1,2*%
%TO.N,VDDA*%
X122179000Y-46501000D03*
%TD*%
D19*
%TO.P,R3,1*%
%TO.N,Net-(D1-Pad1)*%
X118475000Y-75178000D03*
%TO.P,R3,2*%
%TO.N,GND*%
X117455000Y-75178000D03*
%TD*%
D12*
%TO.P,J9,1,Pin_1*%
%TO.N,Net-(J9-Pad1)*%
X123193000Y-77189000D03*
D13*
%TO.P,J9,2,Pin_2*%
%TO.N,CLK_SMA*%
X123193000Y-74649000D03*
%TD*%
D15*
%TO.P,C5,1*%
%TO.N,V_PDM_R*%
X133014000Y-77624500D03*
%TO.P,C5,2*%
%TO.N,GND*%
X133974000Y-77624500D03*
%TD*%
D12*
%TO.P,J8,1,Pin_1*%
%TO.N,Net-(J8-Pad1)*%
X123087000Y-38177000D03*
D13*
%TO.P,J8,2,Pin_2*%
%TO.N,CLK_SMA*%
X120547000Y-38177000D03*
%TD*%
D33*
%TO.P,TP3,1,1*%
%TO.N,VDDA*%
X128799000Y-42912000D03*
%TD*%
D23*
%TO.P,H3,1,1*%
%TO.N,GND*%
X137576000Y-80097000D03*
D24*
X137576000Y-80097000D03*
%TD*%
D12*
%TO.P,J12,1,Pin_1*%
%TO.N,Net-(J12-Pad1)*%
X132436000Y-70413000D03*
D13*
%TO.P,J12,2,Pin_2*%
%TO.N,Net-(C6-Pad2)*%
X129896000Y-70413000D03*
%TO.P,J12,3,Pin_3*%
%TO.N,RIGHT*%
X127356000Y-70413000D03*
%TD*%
D14*
%TO.P,C2,1*%
%TO.N,Net-(C2-Pad1)*%
X114580000Y-67069000D03*
%TO.P,C2,2*%
%TO.N,GND*%
X116480000Y-67069000D03*
%TD*%
D33*
%TO.P,TP2,1,1*%
%TO.N,GND*%
X131362000Y-35232000D03*
%TD*%
D21*
%TO.P,C6,1*%
%TO.N,Net-(C6-Pad1)*%
X132023000Y-77942500D03*
%TO.P,C6,2*%
%TO.N,Net-(C6-Pad2)*%
X131063000Y-77942500D03*
%TD*%
D35*
%TO.P,J2,1,VBUS*%
%TO.N,V_IN*%
X115483000Y-78697000D03*
%TO.P,J2,2,D-*%
%TO.N,unconnected-(J2-Pad2)*%
X116133000Y-78697000D03*
%TO.P,J2,3,D+*%
%TO.N,unconnected-(J2-Pad3)*%
X116783000Y-78697000D03*
%TO.P,J2,4,ID*%
%TO.N,unconnected-(J2-Pad4)*%
X117433000Y-78697000D03*
%TO.P,J2,5,GND*%
%TO.N,GND*%
X118083000Y-78697000D03*
D36*
%TO.P,J2,6,Shield*%
X117783000Y-81397000D03*
D37*
X114283000Y-78697000D03*
D38*
X113283000Y-81397000D03*
D36*
X115783000Y-81397000D03*
D37*
X119283000Y-78697000D03*
D39*
X113883000Y-81397000D03*
D38*
X120283000Y-81397000D03*
D39*
X119683000Y-81397000D03*
%TD*%
D22*
%TO.P,U2,A1,CLK*%
%TO.N,Net-(J8-Pad1)*%
X123139000Y-42473000D03*
%TO.P,U2,A2,SEL*%
%TO.N,V_PDM_L*%
X123139000Y-42873000D03*
%TO.P,U2,B1,GND*%
%TO.N,GND*%
X122739000Y-42473000D03*
%TO.P,U2,B2,INPUT*%
%TO.N,Net-(C7-Pad1)*%
X122739000Y-42873000D03*
%TO.P,U2,C1,DAT*%
%TO.N,Net-(R4-Pad1)*%
X122339000Y-42473000D03*
%TO.P,U2,C2,VDD*%
%TO.N,V_PDM_L*%
X122339000Y-42873000D03*
%TD*%
D32*
%TO.P,R9,1*%
%TO.N,Net-(J11-Pad2)*%
X131732000Y-74580000D03*
%TO.P,R9,2*%
%TO.N,GND*%
X131732000Y-73560000D03*
%TD*%
D24*
%TO.P,H2,1,1*%
%TO.N,GND*%
X109064000Y-80154000D03*
D23*
X109064000Y-80154000D03*
%TD*%
D40*
%TO.N,GND*%
X121300000Y-47233000D03*
X131686000Y-78889500D03*
X134419000Y-57384000D03*
X111432000Y-59342000D03*
X136271000Y-48144000D03*
X136201000Y-44153000D03*
X112401000Y-72025000D03*
X115875000Y-80088000D03*
X121736000Y-37515000D03*
X110636000Y-63603000D03*
X132596000Y-79864500D03*
X121407000Y-44301000D03*
X110436000Y-44223000D03*
X118125000Y-77568000D03*
X121718000Y-38955000D03*
X114849869Y-70996993D03*
X113730000Y-59152000D03*
X114808000Y-72015000D03*
X133848000Y-72860000D03*
X113030000Y-57810000D03*
X115538000Y-66601000D03*
X110645000Y-56227000D03*
X136260000Y-49757000D03*
X111417000Y-60469000D03*
X110412000Y-49834000D03*
X133799000Y-78239000D03*
X115759000Y-74889000D03*
X122614500Y-41907496D03*
X110449000Y-42643000D03*
X131259000Y-73702000D03*
X112376000Y-70831000D03*
X136297000Y-68854000D03*
X136335000Y-72975000D03*
X117601000Y-75845000D03*
X120148000Y-45208000D03*
X136219000Y-42503000D03*
X111876000Y-67659000D03*
X136291000Y-67358000D03*
X110659000Y-61913000D03*
X136324000Y-74525000D03*
X117799000Y-80145000D03*
X117354000Y-65984000D03*
X110412000Y-48333000D03*
X115080000Y-73614000D03*
X113569126Y-68154186D03*
X110645000Y-57943000D03*
%TO.N,VDDA*%
X112594000Y-67959000D03*
X122027000Y-48415000D03*
X133190000Y-72819000D03*
%TO.N,V_PDM_L*%
X123655000Y-42917000D03*
X123194000Y-44660000D03*
%TO.N,CLK_SMA*%
X110976000Y-59898000D03*
%TD*%
D41*
%TO.N,V_IN*%
X114052000Y-75896000D02*
X113417000Y-75896000D01*
D42*
X112588000Y-73582000D02*
X113588000Y-73582000D01*
D41*
X115700598Y-73845134D02*
X115700598Y-70394598D01*
X116791500Y-73785000D02*
X115760732Y-73785000D01*
X113982000Y-75826000D02*
X114052000Y-75896000D01*
X113588000Y-73582000D02*
X113588000Y-74337330D01*
X113846486Y-74634000D02*
X114911732Y-74634000D01*
X113417000Y-75896000D02*
X112845000Y-75324000D01*
X115483000Y-78697000D02*
X115483000Y-77804000D01*
X115760732Y-73785000D02*
X115700598Y-73845134D01*
X113611000Y-74398514D02*
X113846486Y-74634000D01*
X115700598Y-70394598D02*
X114588000Y-69282000D01*
X114052000Y-76373000D02*
X114052000Y-75896000D01*
X114052000Y-75896000D02*
X114052000Y-75707000D01*
X113588000Y-74337330D02*
X113611000Y-74360330D01*
X113611000Y-74360330D02*
X113611000Y-74398514D01*
X114052000Y-75707000D02*
X114417000Y-75342000D01*
X112845000Y-75324000D02*
X110153000Y-75324000D01*
X114417000Y-75342000D02*
X114417000Y-74633500D01*
X115483000Y-77804000D02*
X114052000Y-76373000D01*
X114911732Y-74634000D02*
X115700598Y-73845134D01*
D42*
%TO.N,GND*%
X133799000Y-77799500D02*
X133974000Y-77624500D01*
D41*
X114023007Y-70996993D02*
X114849869Y-70996993D01*
X109651000Y-43441000D02*
X110449000Y-42643000D01*
X109654000Y-43441000D02*
X110436000Y-44223000D01*
X115759000Y-74889000D02*
X115759000Y-75703000D01*
D42*
X113588000Y-69282000D02*
X113588000Y-68173060D01*
X122739000Y-42473000D02*
X122739000Y-42031996D01*
D41*
X108222000Y-49091000D02*
X109654000Y-49091000D01*
X108378000Y-57098000D02*
X109774000Y-57098000D01*
X108222000Y-49091000D02*
X109669000Y-49091000D01*
D42*
X121407000Y-43846000D02*
X121223000Y-43662000D01*
D41*
X114171000Y-72015000D02*
X113588000Y-71432000D01*
X133848000Y-73296000D02*
X133848000Y-72860000D01*
X109774000Y-57098000D02*
X110645000Y-56227000D01*
X138508000Y-68117000D02*
X137034000Y-68117000D01*
X108222000Y-43441000D02*
X109651000Y-43441000D01*
X121300000Y-47697000D02*
X121208000Y-47789000D01*
X108378000Y-62748000D02*
X109781000Y-62748000D01*
X131732000Y-73684000D02*
X131714000Y-73702000D01*
X121300000Y-47233000D02*
X121300000Y-47697000D01*
X134419000Y-56555000D02*
X135330000Y-55644000D01*
D42*
X114622695Y-73616695D02*
X115149098Y-73616695D01*
D41*
X115875000Y-81305000D02*
X115783000Y-81397000D01*
X112376000Y-70831000D02*
X112987000Y-70831000D01*
D42*
X133799000Y-78239000D02*
X133799000Y-77799500D01*
D41*
X138508000Y-73767000D02*
X137127000Y-73767000D01*
X137082000Y-73767000D02*
X136324000Y-74525000D01*
D42*
X122739000Y-42031996D02*
X122614500Y-41907496D01*
D41*
X137034000Y-68117000D02*
X136297000Y-68854000D01*
D42*
X121407000Y-44301000D02*
X121407000Y-43846000D01*
X120148000Y-45682000D02*
X120266000Y-45800000D01*
X114588000Y-73582000D02*
X114622695Y-73616695D01*
X113588000Y-68173060D02*
X113569126Y-68154186D01*
D41*
X137050000Y-68117000D02*
X136291000Y-67358000D01*
X133990000Y-73438000D02*
X133848000Y-73296000D01*
X138508000Y-73767000D02*
X137082000Y-73767000D01*
X109654000Y-49091000D02*
X110412000Y-48333000D01*
X108378000Y-62748000D02*
X109824000Y-62748000D01*
X109781000Y-62748000D02*
X110636000Y-63603000D01*
X115759000Y-75703000D02*
X115952000Y-75896000D01*
X131732000Y-73560000D02*
X131732000Y-73684000D01*
X117799000Y-80145000D02*
X117799000Y-81381000D01*
X117799000Y-81381000D02*
X117783000Y-81397000D01*
X109669000Y-49091000D02*
X110412000Y-49834000D01*
X117595000Y-75469000D02*
X117595000Y-75908000D01*
X112995000Y-72025000D02*
X113588000Y-71432000D01*
X113588000Y-71432000D02*
X114023007Y-70996993D01*
X112987000Y-70831000D02*
X113588000Y-71432000D01*
D42*
X117354000Y-65984000D02*
X117354000Y-65440000D01*
D41*
X118083000Y-77610000D02*
X118125000Y-77568000D01*
D42*
X132595000Y-79863500D02*
X132595000Y-79299819D01*
D41*
X115875000Y-80088000D02*
X115875000Y-81305000D01*
D42*
X132184681Y-78889500D02*
X132195000Y-78899819D01*
D41*
X137127000Y-73767000D02*
X136335000Y-72975000D01*
X134419000Y-57384000D02*
X134419000Y-56555000D01*
X112401000Y-72025000D02*
X112995000Y-72025000D01*
X116012000Y-66601000D02*
X116480000Y-67069000D01*
X117455000Y-75329000D02*
X117595000Y-75469000D01*
X109800000Y-57098000D02*
X110645000Y-57943000D01*
D42*
X132596000Y-79864500D02*
X132595000Y-79863500D01*
D41*
X131714000Y-73702000D02*
X131259000Y-73702000D01*
X115538000Y-66601000D02*
X116012000Y-66601000D01*
D42*
X117354000Y-65440000D02*
X117447000Y-65347000D01*
D41*
X133990000Y-73461500D02*
X133978500Y-73461500D01*
X133990000Y-73461500D02*
X133990000Y-73438000D01*
X108222000Y-43441000D02*
X109654000Y-43441000D01*
X117455000Y-75178000D02*
X117455000Y-75329000D01*
X109824000Y-62748000D02*
X110659000Y-61913000D01*
X111889000Y-67656000D02*
X111154000Y-67656000D01*
X114808000Y-72015000D02*
X114171000Y-72015000D01*
X108378000Y-57098000D02*
X109800000Y-57098000D01*
X118083000Y-78697000D02*
X118083000Y-77610000D01*
D42*
X131686000Y-78889500D02*
X132184681Y-78889500D01*
X120148000Y-45208000D02*
X120148000Y-45682000D01*
D41*
X138508000Y-68117000D02*
X137050000Y-68117000D01*
%TO.N,Net-(C2-Pad1)*%
X114322000Y-66811000D02*
X114580000Y-67069000D01*
X114408000Y-62889000D02*
X114408000Y-65256000D01*
X114088000Y-69282000D02*
X114088000Y-68415251D01*
X114408000Y-65256000D02*
X114338000Y-65326000D01*
X114322000Y-66168000D02*
X114322000Y-66811000D01*
X114338000Y-65326000D02*
X114338000Y-66152000D01*
X114580000Y-67923251D02*
X114580000Y-67069000D01*
X114338000Y-66152000D02*
X114322000Y-66168000D01*
X114088000Y-68415251D02*
X114580000Y-67923251D01*
%TO.N,VDDA*%
X110845000Y-69282000D02*
X110742000Y-69179000D01*
D42*
X122168000Y-47789000D02*
X122168000Y-46512000D01*
X133030000Y-73461500D02*
X133030000Y-74768000D01*
D41*
X133190000Y-73301500D02*
X133030000Y-73461500D01*
D42*
X122168000Y-46512000D02*
X122179000Y-46501000D01*
D41*
X112588000Y-69282000D02*
X112588000Y-67965000D01*
D42*
X133030000Y-74768000D02*
X133042000Y-74780000D01*
D41*
X122027000Y-48415000D02*
X122027000Y-47930000D01*
X122027000Y-47930000D02*
X122168000Y-47789000D01*
X112588000Y-69282000D02*
X113088000Y-69282000D01*
X133190000Y-72819000D02*
X133190000Y-73301500D01*
X112588000Y-67965000D02*
X112594000Y-67959000D01*
X112588000Y-69282000D02*
X110845000Y-69282000D01*
D42*
%TO.N,V_PDM_L*%
X122183000Y-43662000D02*
X121514000Y-42993000D01*
X123655000Y-42917000D02*
X123183000Y-42917000D01*
X120040000Y-42993000D02*
X119263000Y-43770000D01*
X122445000Y-44660000D02*
X122179000Y-44926000D01*
X122179000Y-44926000D02*
X122179000Y-43666000D01*
X123194000Y-44660000D02*
X122445000Y-44660000D01*
X122179000Y-43666000D02*
X122183000Y-43662000D01*
X122339000Y-42873000D02*
X122339000Y-43506000D01*
X122339000Y-43506000D02*
X122183000Y-43662000D01*
X121514000Y-42993000D02*
X120040000Y-42993000D01*
X123183000Y-42917000D02*
X123139000Y-42873000D01*
%TO.N,V_PDM_R*%
X132995000Y-77643500D02*
X133014000Y-77624500D01*
X133042000Y-77596500D02*
X133014000Y-77624500D01*
X132995000Y-78899819D02*
X132995000Y-77643500D01*
D41*
X132830000Y-76567000D02*
X133042000Y-76355000D01*
D42*
X133042000Y-76355000D02*
X133042000Y-77596500D01*
D41*
X131740000Y-76567000D02*
X132830000Y-76567000D01*
D42*
%TO.N,Net-(C6-Pad1)*%
X132595000Y-78514500D02*
X132023000Y-77942500D01*
X132595000Y-78899819D02*
X132595000Y-78514500D01*
%TO.N,Net-(C6-Pad2)*%
X126583000Y-73726000D02*
X126583000Y-75341000D01*
X128350000Y-77108000D02*
X130228500Y-77108000D01*
X126583000Y-75341000D02*
X128350000Y-77108000D01*
X129896000Y-70413000D02*
X126583000Y-73726000D01*
X130228500Y-77108000D02*
X131063000Y-77942500D01*
%TO.N,Net-(C7-Pad1)*%
X122739000Y-43173000D02*
X123231000Y-43665000D01*
X122739000Y-42873000D02*
X122739000Y-43173000D01*
%TO.N,Net-(C7-Pad2)*%
X126421000Y-47732000D02*
X126069000Y-47380000D01*
X124191000Y-43665000D02*
X124191000Y-45502000D01*
X128025000Y-49336000D02*
X126421000Y-47732000D01*
X126069000Y-47380000D02*
X126001000Y-47380000D01*
X126001000Y-47380000D02*
X122881000Y-50500000D01*
X129769000Y-50486000D02*
X128619000Y-49336000D01*
X128619000Y-49336000D02*
X128025000Y-49336000D01*
X124191000Y-45502000D02*
X126421000Y-47732000D01*
%TO.N,Net-(D1-Pad1)*%
X118366500Y-73785000D02*
X118366500Y-75069500D01*
X118366500Y-75069500D02*
X118475000Y-75178000D01*
D41*
%TO.N,Net-(J1-Pad1)*%
X116427000Y-65347000D02*
X116427000Y-64108000D01*
X116427000Y-64108000D02*
X116948000Y-63587000D01*
X116406000Y-65326000D02*
X116427000Y-65347000D01*
X115358000Y-65326000D02*
X116406000Y-65326000D01*
X116948000Y-63587000D02*
X116948000Y-62889000D01*
X117176000Y-62877000D02*
X117176000Y-63012000D01*
X117176000Y-63012000D02*
X116576000Y-63612000D01*
D42*
%TO.N,CLK_SMA*%
X110951000Y-59923000D02*
X108178000Y-59923000D01*
X110976000Y-59898000D02*
X110951000Y-59923000D01*
%TO.N,Net-(J4-Pad1)*%
X110602000Y-46266000D02*
X113118000Y-48782000D01*
X108022000Y-46266000D02*
X110602000Y-46266000D01*
%TO.N,PDAT_SMA*%
X122614000Y-67550000D02*
X122614000Y-64130000D01*
X116291000Y-48149000D02*
X116291000Y-45364000D01*
X122614000Y-64130000D02*
X113118000Y-54634000D01*
X116291000Y-45364000D02*
X115555000Y-44628000D01*
X113118000Y-51322000D02*
X116291000Y-48149000D01*
X113118000Y-54634000D02*
X113118000Y-51322000D01*
D41*
%TO.N,Net-(J6-Pad1)*%
X120119000Y-42088000D02*
X115555000Y-42088000D01*
X120385000Y-42354000D02*
X120119000Y-42088000D01*
D42*
%TO.N,Net-(J7-Pad1)*%
X124456000Y-80752000D02*
X123941000Y-80237000D01*
X120815000Y-77111000D02*
X123941000Y-80237000D01*
X120815000Y-72599000D02*
X120815000Y-77111000D01*
X122043000Y-70661000D02*
X122043000Y-71371000D01*
X122614000Y-70090000D02*
X122043000Y-70661000D01*
X132205000Y-80752000D02*
X124456000Y-80752000D01*
X122043000Y-71371000D02*
X120815000Y-72599000D01*
%TO.N,Net-(J8-Pad1)*%
X123139000Y-42473000D02*
X123139000Y-38229000D01*
X123139000Y-38229000D02*
X123087000Y-38177000D01*
%TO.N,Net-(J9-Pad1)*%
X131854409Y-79640409D02*
X125644409Y-79640409D01*
X132195000Y-79299819D02*
X131854409Y-79640409D01*
X125644409Y-79640409D02*
X123193000Y-77189000D01*
%TO.N,Net-(J10-Pad2)*%
X119246000Y-49405000D02*
X120341000Y-50500000D01*
X119246000Y-45800000D02*
X119246000Y-49405000D01*
X119263000Y-44790000D02*
X119263000Y-45757000D01*
D41*
%TO.N,Net-(J11-Pad2)*%
X131732000Y-74580000D02*
X131720000Y-74568000D01*
X131720000Y-74568000D02*
X128350000Y-74568000D01*
X131732000Y-75539000D02*
X131740000Y-75547000D01*
X131732000Y-74580000D02*
X131732000Y-75539000D01*
D42*
%TO.N,Net-(J12-Pad1)*%
X138708000Y-70942000D02*
X132965000Y-70942000D01*
X132965000Y-70942000D02*
X132436000Y-70413000D01*
D41*
%TO.N,RIGHT*%
X132971000Y-63070000D02*
X132971000Y-64798000D01*
X132971000Y-64798000D02*
X127356000Y-70413000D01*
D42*
%TO.N,Net-(J13-Pad1)*%
X138638500Y-46137000D02*
X136658000Y-46137000D01*
X136658000Y-46137000D02*
X132309000Y-50486000D01*
D41*
%TO.N,LEFT*%
X125571000Y-55670000D02*
X125571000Y-52144000D01*
X125571000Y-52144000D02*
X127229000Y-50486000D01*
D42*
%TO.N,Net-(R4-Pad1)*%
X121524000Y-42473000D02*
X121405000Y-42354000D01*
X122339000Y-42473000D02*
X121524000Y-42473000D01*
%TO.N,Net-(R5-Pad1)*%
X132995000Y-79299819D02*
X133483000Y-79787819D01*
X133483000Y-80494000D02*
X133225000Y-80752000D01*
X133483000Y-79787819D02*
X133483000Y-80494000D01*
%TD*%
M02*
