M48
; DRILL file {KiCad (6.0.9)} date Fri Dec 23 15:52:03 2022
; FORMAT={-:-/ absolute / inch / decimal}
; #@! TF.CreationDate,2022-12-23T15:52:03-08:00
; #@! TF.GenerationSoftware,Kicad,Pcbnew,(6.0.9)
; #@! TF.FileFunction,Plated,1,4,PTH
FMAT,2
INCH
; #@! TA.AperFunction,Plated,PTH,ViaDrill
T1C0.0079
; #@! TA.AperFunction,Plated,PTH,ComponentDrill
T2C0.0236
; #@! TA.AperFunction,Plated,PTH,ComponentDrill
T3C0.0335
; #@! TA.AperFunction,Plated,PTH,ComponentDrill
T4C0.0394
; #@! TA.AperFunction,Plated,PTH,ComponentDrill
T5C0.1260
%
G90
G05
T1
X4.3469Y-1.9029
X4.3469Y-1.962
X4.3479Y-1.7411
X4.3484Y-1.6789
X4.3557Y-2.5041
X4.3561Y-2.2137
X4.3561Y-2.2812
X4.3567Y-2.4375
X4.3691Y-2.3582
X4.3865Y-2.3807
X4.3871Y-2.3363
X4.4046Y-2.6637
X4.4243Y-2.7886
X4.4252Y-2.8356
X4.4328Y-2.6756
X4.45Y-2.276
X4.4712Y-2.6832
X4.4776Y-2.3288
X4.52Y-2.8352
X4.5216Y-2.7952
X4.5307Y-2.8982
X4.5487Y-2.6221
X4.5574Y-2.9484
X4.562Y-3.1531
X4.6202Y-2.5978
X4.63Y-2.986
X4.6378Y-3.1553
X4.6506Y-3.0539
X4.7302Y-1.7798
X4.7756Y-1.8596
X4.7798Y-1.7441
X4.792Y-1.5337
X4.7928Y-1.477
X4.8042Y-1.9061
X4.8273Y-1.6499
X4.8502Y-1.7583
X4.8683Y-1.6896
X5.1677Y-2.9017
X5.1845Y-3.1059
X5.2203Y-3.1443
X5.2437Y-2.8669
X5.2677Y-3.0803
X5.2696Y-2.8685
X5.2921Y-2.2592
X5.3622Y-1.7383
X5.363Y-1.6733
X5.3646Y-1.9589
X5.365Y-1.8954
X5.3658Y-2.6519
X5.366Y-2.7108
X5.3671Y-2.9341
X5.3675Y-2.873
T3
X4.4993Y-3.0983
X4.6962Y-3.0983
T4
X4.3367Y-2.9655
X4.4535Y-1.9206
X4.4535Y-2.0206
X4.5043Y-2.4759
X4.5494Y-1.657
X4.5494Y-1.757
X4.6043Y-2.4759
X4.7378Y-1.9882
X4.7459Y-1.503
X4.8273Y-2.6594
X4.8273Y-2.7594
X4.8378Y-1.9882
X4.8459Y-1.503
X4.8501Y-2.9389
X4.8501Y-3.0389
X5.009Y-1.9876
X5.014Y-2.7722
X5.0531Y-2.9357
X5.0531Y-3.0357
X5.0708Y-1.6894
X5.109Y-1.9876
X5.114Y-2.7722
X5.1717Y-1.3871
X5.209Y-1.9876
X5.214Y-2.7722
T5
X4.2939Y-3.1557
X4.3225Y-1.4152
X5.4031Y-1.4223
X5.4164Y-3.1534
T2
G00X4.46Y-3.2184
M15
G01X4.46Y-3.1908
M16
G05
G00X4.7356Y-3.1908
M15
G01X4.7356Y-3.2184
M16
G05
T0
M30
